<svg width="24" height="24" viewBox="0 0 24 24" fill="none" xmlns="http://www.w3.org/2000/svg">
<path d="M8 22C8 22 9.5 22.5 12.5 22.5C16.5 22.5 19 20.5 20 17C20.8 17 21 13.8333 21 12.5C21 2.5 16.5 1 12.5 1C10.5 1 8.5 1.5 8 3C4.5 3 4 8 4 13C4 16 6.57464 17.3937 9 18C11 18.5 11.5 18.5 12 18.5" stroke="white" stroke-width="2" stroke-linecap="round" stroke-linejoin="round"/>
<path d="M13.5 16.5H11.5C10.6716 16.5 10 17.1716 10 18C10 18.8284 10.6716 19.5 11.5 19.5H13.5C14.3284 19.5 15 18.8284 15 18C15 17.1716 14.3284 16.5 13.5 16.5Z" fill="white"/>
<path d="M3.00993 11.8596C2.93183 12.4063 3.31172 12.9128 3.85846 12.9909C4.40519 13.069 4.91172 12.6891 4.98983 12.1424L3.00993 11.8596ZM19.9999 11.9955C19.9999 12.5478 20.4476 12.9955 20.9999 12.9955C21.5522 12.9955 21.9999 12.5478 21.9999 11.9955H19.9999ZM4.98983 12.1424C5.19079 10.7357 6.05832 9.62957 7.09802 8.81677C8.15072 7.99381 9.25951 7.5678 9.69574 7.48068L9.30402 5.51941C8.52626 5.67475 7.13504 6.24921 5.86624 7.24111C4.58445 8.24316 3.30897 9.76625 3.00993 11.8596L4.98983 12.1424ZM9.69574 7.48068C9.4098 7.53779 9.22596 7.42022 9.28893 7.4517C9.3155 7.46499 9.37741 7.50218 9.51106 7.59416C9.7488 7.75779 10.1405 8.04495 10.6195 8.32547C11.6088 8.90486 13.0319 9.50001 14.9999 9.50001V7.50001C13.4679 7.50001 12.391 7.04525 11.6303 6.59968C11.2343 6.36773 10.9385 6.14866 10.645 5.94666C10.513 5.85582 10.3483 5.74535 10.1835 5.66291C10.0551 5.59868 9.71496 5.43734 9.30402 5.51941L9.69574 7.48068ZM14.9999 9.50001C16.35 9.50001 17.6797 9.83979 18.6399 10.3723C19.6407 10.9273 19.9999 11.5365 19.9999 11.9955H21.9999C21.9999 10.4545 20.8591 9.31595 19.6099 8.62322C18.3201 7.90797 16.6498 7.50001 14.9999 7.50001V9.50001Z" fill="white"/>
<path d="M5 11.5C5 10.6716 4.32843 10 3.5 10C2.67157 10 2 10.6716 2 11.5V14.5C2 15.3284 2.67157 16 3.5 16C4.32843 16 5 15.3284 5 14.5V11.5Z" fill="white"/>
<path d="M23 11.5C23 10.6716 22.3284 10 21.5 10C20.6716 10 20 10.6716 20 11.5V14.5C20 15.3284 20.6716 16 21.5 16C22.3284 16 23 15.3284 23 14.5V11.5Z" fill="white"/>
<path d="M10 11H9C8.44772 11 8 11.4477 8 12C8 12.5523 8.44772 13 9 13H10C10.5523 13 11 12.5523 11 12C11 11.4477 10.5523 11 10 11Z" fill="white"/>
<path d="M16 11H15C14.4477 11 14 11.4477 14 12C14 12.5523 14.4477 13 15 13H16C16.5523 13 17 12.5523 17 12C17 11.4477 16.5523 11 16 11Z" fill="white"/>
</svg>
