<svg width="149" height="39" viewBox="0 0 149 39" fill="none" xmlns="http://www.w3.org/2000/svg">
<g clip-path="url(#clip0_404_1421)">
<path d="M17.4608 8.94974C17.5393 8.98453 17.606 9.04152 17.6528 9.11377C17.6996 9.18601 17.7246 9.2704 17.7246 9.35665C17.7246 9.4429 17.6996 9.52728 17.6528 9.59953C17.606 9.67178 17.5393 9.72876 17.4608 9.76355L13.5237 11.5401L12.7577 11.8639C12.7018 11.8896 12.6411 11.9028 12.5796 11.9028C12.5182 11.9028 12.4574 11.8896 12.4015 11.8639L0.259622 6.35937C0.181947 6.32427 0.116069 6.26724 0.0699848 6.1952C0.0239002 6.12316 -0.000409693 6.03922 5.22392e-06 5.95355V1.82622C3.94613e-05 1.75208 0.0184972 1.67913 0.0536999 1.614C0.0889026 1.54886 0.139733 1.49362 0.201566 1.45329C0.2634 1.41296 0.334275 1.38883 0.407743 1.38308C0.481212 1.37734 0.554942 1.39016 0.622227 1.42039L1.21656 1.68807L17.4608 8.94974Z" fill="#858D94"/>
<path d="M41.9979 1.1959V5.3297C41.9979 5.41555 41.9731 5.49955 41.9267 5.57156C41.8802 5.64357 41.8141 5.70052 41.7362 5.73553L12.7492 18.791C12.6819 18.8212 12.6082 18.8341 12.5347 18.8283C12.4612 18.8226 12.3903 18.7984 12.3285 18.7581C12.2667 18.7178 12.2159 18.6625 12.1806 18.5974C12.1454 18.5323 12.127 18.4593 12.127 18.3852V14.1974C12.127 14.1116 12.1517 14.0276 12.1982 13.9556C12.2446 13.8835 12.3108 13.8266 12.3887 13.7916L41.3778 0.790073C41.445 0.760315 41.5185 0.747862 41.5917 0.753839C41.6649 0.759817 41.7354 0.784036 41.7969 0.82431C41.8585 0.864584 41.9091 0.919644 41.9442 0.984519C41.9792 1.04939 41.9977 1.12204 41.9979 1.1959V1.1959Z" fill="#1B9DE2"/>
<path d="M29.9955 13.5865V17.7548C29.9954 17.8407 29.9707 17.9247 29.9242 17.9967C29.8778 18.0687 29.8116 18.1257 29.7337 18.1607L12.7685 25.8239C12.7012 25.8541 12.6275 25.8669 12.554 25.8612C12.4805 25.8554 12.4097 25.8313 12.3478 25.791C12.286 25.7506 12.2352 25.6954 12.2 25.6303C12.1648 25.5651 12.1463 25.4922 12.1463 25.418V21.2324C12.1455 21.1458 12.1698 21.0609 12.2163 20.9881C12.2628 20.9152 12.3294 20.8576 12.408 20.8223L29.3732 13.1807C29.4405 13.1504 29.5142 13.1376 29.5877 13.1434C29.6612 13.1491 29.7321 13.1732 29.7939 13.2136C29.8557 13.2539 29.9066 13.3091 29.9418 13.3743C29.977 13.4394 29.9954 13.5124 29.9955 13.5865V13.5865Z" fill="#006CBF"/>
<path d="M29.9954 20.5805V24.7467C29.9951 24.8325 29.9703 24.9164 29.9238 24.9883C29.8774 25.0603 29.8114 25.1173 29.7336 25.1525L22.7798 28.2934L19.3811 29.8238L0.622222 38.2922C0.554937 38.3224 0.481206 38.3353 0.407738 38.3295C0.33427 38.3238 0.263395 38.2996 0.201561 38.2593C0.139728 38.219 0.0888974 38.1637 0.0536947 38.0986C0.018492 38.0335 3.42374e-05 37.9605 0 37.8864V33.7375C0.00233034 33.6535 0.0281226 33.5719 0.0744198 33.5021C0.120717 33.4322 0.185645 33.3769 0.261762 33.3424L17.0553 25.7548L17.7526 25.4396L19.3833 24.7035L22.7798 23.1687L29.3732 20.1747C29.4405 20.1445 29.5142 20.1316 29.5877 20.1374C29.6611 20.1431 29.732 20.1673 29.7938 20.2076C29.8557 20.2479 29.9065 20.3032 29.9417 20.3683C29.9769 20.4334 29.9954 20.5064 29.9954 20.5805Z" fill="#184F85"/>
<path d="M18.7418 6.63348V7.31562L18.7396 7.31777L18.7418 6.63348Z" fill="#5F6469"/>
<path d="M23.6166 0.442527V6.7026C23.6168 6.78905 23.5919 6.87368 23.545 6.94614C23.4981 7.0186 23.4313 7.07575 23.3527 7.11058L19.3597 8.88498C19.2925 8.91474 19.219 8.9272 19.1458 8.92122C19.0727 8.91524 19.0021 8.89102 18.9406 8.85075C18.8791 8.81047 18.8285 8.75541 18.7934 8.69054C18.7583 8.62566 18.7398 8.55302 18.7396 8.47916V8.47916V6.75224L18.7504 0.442527C18.7504 0.384232 18.7618 0.326511 18.784 0.272681C18.8063 0.21885 18.8389 0.169971 18.8799 0.128851C18.921 0.0877305 18.9698 0.0551802 19.0234 0.0330687C19.077 0.0109573 19.1344 -0.0002791 19.1923 5.26544e-06H23.1746C23.2325 -0.0002791 23.2899 0.0109573 23.3435 0.0330687C23.3972 0.0551802 23.4459 0.0877305 23.487 0.128851C23.528 0.169971 23.5606 0.21885 23.5829 0.272681C23.6051 0.326511 23.6166 0.384232 23.6166 0.442527Z" fill="#5F6469"/>
<path d="M41.9979 32.8136V36.9387C41.9979 37.0129 41.9794 37.0858 41.9442 37.151C41.909 37.2161 41.8582 37.2713 41.7963 37.3117C41.7345 37.352 41.6636 37.3761 41.5902 37.3819C41.5167 37.3876 41.443 37.3748 41.3757 37.3446L41.1375 37.2388L24.8932 29.9598C24.8148 29.925 24.7481 29.8681 24.7013 29.7958C24.6544 29.7236 24.6295 29.6392 24.6295 29.5529C24.6295 29.4667 24.6544 29.3823 24.7013 29.31C24.7481 29.2378 24.8148 29.1808 24.8932 29.146L28.8304 27.3803L29.5964 27.05C29.6523 27.0243 29.713 27.011 29.7745 27.011C29.8359 27.011 29.8966 27.0243 29.9525 27.05L41.7383 32.3948C41.818 32.4308 41.8853 32.4898 41.9315 32.5644C41.9778 32.639 42.0009 32.7257 41.9979 32.8136V32.8136Z" fill="#858D94"/>
<path d="M18.7396 38.4821V32.2221C18.7394 32.1356 18.7643 32.051 18.8112 31.9785C18.858 31.9061 18.9249 31.8489 19.0035 31.8141L22.9965 30.0418C23.0638 30.012 23.1375 29.9996 23.2109 30.0057C23.2842 30.0117 23.3549 30.0361 23.4165 30.0767C23.4781 30.1172 23.5286 30.1725 23.5636 30.2377C23.5985 30.3029 23.6167 30.3758 23.6166 30.4498V32.1767L23.6058 38.4843C23.6058 38.6022 23.5593 38.7153 23.4764 38.7987C23.3935 38.8821 23.2811 38.929 23.1638 38.929H19.1816C19.1234 38.929 19.0657 38.9174 19.012 38.8949C18.9582 38.8724 18.9094 38.8395 18.8683 38.798C18.8273 38.7565 18.7947 38.7072 18.7727 38.653C18.7506 38.5988 18.7393 38.5407 18.7396 38.4821V38.4821Z" fill="#5F6469"/>
</g>
<path d="M46.7812 13.5103C47.4727 13.5103 48.041 13.6099 48.4863 13.8091C48.9434 14.0084 49.3418 14.2193 49.6816 14.442V16.0767C49.3535 15.8306 48.9551 15.6021 48.4863 15.3912C48.0176 15.1685 47.5078 15.0572 46.957 15.0572C46.6055 15.0572 46.2363 15.1216 45.8496 15.2505C45.4746 15.3677 45.1582 15.5611 44.9004 15.8306C44.6426 16.1002 44.5137 16.4459 44.5137 16.8677C44.5137 17.3365 44.6836 17.6939 45.0234 17.94C45.3633 18.1861 45.7734 18.4205 46.2539 18.6431L47.8711 19.3814C48.6797 19.7447 49.2891 20.149 49.6992 20.5943C50.1094 21.0396 50.3145 21.6314 50.3145 22.3697C50.3145 23.0142 50.127 23.5826 49.752 24.0748C49.377 24.5552 48.8848 24.9361 48.2754 25.2173C47.666 25.4986 46.998 25.6392 46.2715 25.6392C45.5918 25.6392 44.9648 25.522 44.3906 25.2877C43.8164 25.0533 43.3184 24.7896 42.8965 24.4966V22.8619C43.3535 23.1783 43.875 23.4654 44.4609 23.7232C45.0586 23.9693 45.7324 24.0923 46.4824 24.0923C47.0684 24.0923 47.584 23.9459 48.0293 23.6529C48.4746 23.3599 48.6973 22.9556 48.6973 22.44C48.6973 22.147 48.6035 21.8951 48.416 21.6841C48.2402 21.4732 48.0234 21.2916 47.7656 21.1392C47.5078 20.9869 47.2559 20.858 47.0098 20.7525L45.0586 19.8736C44.2148 19.4986 43.6406 19.0591 43.3359 18.5552C43.0312 18.0513 42.8789 17.4713 42.8789 16.815C42.8789 16.1939 43.0547 15.6373 43.4062 15.1451C43.7695 14.6412 44.25 14.2427 44.8477 13.9498C45.4453 13.6568 46.0898 13.5103 46.7812 13.5103ZM54.1289 16.6744V18.063C54.3164 17.8287 54.5566 17.5943 54.8496 17.3599C55.1426 17.1138 55.4707 16.9088 55.834 16.7447C56.209 16.5806 56.5957 16.4986 56.9941 16.4986C57.5918 16.4986 58.1367 16.6334 58.6289 16.9029C59.1211 17.1607 59.5137 17.5591 59.8066 18.0982C60.0996 18.6255 60.2461 19.2935 60.2461 20.1021V25.4634H58.8047L58.7871 20.2427C58.7871 19.481 58.6172 18.9009 58.2773 18.5025C57.9492 18.1041 57.4395 17.9048 56.748 17.9048C56.2793 17.9048 55.8105 18.0806 55.3418 18.4322C54.8848 18.772 54.4805 19.1705 54.1289 19.6275V25.4634H52.6875V16.6744H54.1289ZM66.9434 16.4986C67.834 16.4986 68.625 16.7095 69.3164 17.1314C70.0078 17.5533 70.5469 18.1158 70.9336 18.8189C71.332 19.522 71.5312 20.2896 71.5312 21.1216C71.5312 21.9537 71.332 22.7213 70.9336 23.4244C70.5469 24.1158 70.0078 24.6724 69.3164 25.0943C68.625 25.5162 67.834 25.7271 66.9434 25.7271C66.0527 25.7271 65.2617 25.5162 64.5703 25.0943C63.8789 24.6724 63.334 24.1158 62.9355 23.4244C62.5488 22.7213 62.3555 21.9537 62.3555 21.1216C62.3555 20.2896 62.5488 19.522 62.9355 18.8189C63.334 18.1158 63.8789 17.5533 64.5703 17.1314C65.2617 16.7095 66.0527 16.4986 66.9434 16.4986ZM66.9434 17.9048C66.3223 17.9048 65.7773 18.0572 65.3086 18.3619C64.8398 18.6548 64.4766 19.0474 64.2188 19.5396C63.9727 20.0201 63.8496 20.5474 63.8496 21.1216C63.8496 21.6841 63.9727 22.2115 64.2188 22.7037C64.4766 23.1841 64.8398 23.5767 65.3086 23.8814C65.7773 24.1744 66.3223 24.3209 66.9434 24.3209C67.5762 24.3209 68.1211 24.1744 68.5781 23.8814C69.0469 23.5767 69.4043 23.1841 69.6504 22.7037C69.9082 22.2115 70.0371 21.6841 70.0371 21.1216C70.0371 20.5474 69.9082 20.0201 69.6504 19.5396C69.4043 19.0474 69.0469 18.6548 68.5781 18.3619C68.1211 18.0572 67.5762 17.9048 66.9434 17.9048ZM77.877 16.4986C78.7676 16.4986 79.5586 16.7095 80.25 17.1314C80.9414 17.5533 81.4805 18.1158 81.8672 18.8189C82.2656 19.522 82.4648 20.2896 82.4648 21.1216C82.4648 21.9537 82.2656 22.7213 81.8672 23.4244C81.4805 24.1158 80.9414 24.6724 80.25 25.0943C79.5586 25.5162 78.7676 25.7271 77.877 25.7271C76.9863 25.7271 76.1953 25.5162 75.5039 25.0943C74.8125 24.6724 74.2676 24.1158 73.8691 23.4244C73.4824 22.7213 73.2891 21.9537 73.2891 21.1216C73.2891 20.2896 73.4824 19.522 73.8691 18.8189C74.2676 18.1158 74.8125 17.5533 75.5039 17.1314C76.1953 16.7095 76.9863 16.4986 77.877 16.4986ZM77.877 17.9048C77.2559 17.9048 76.7109 18.0572 76.2422 18.3619C75.7734 18.6548 75.4102 19.0474 75.1523 19.5396C74.9062 20.0201 74.7832 20.5474 74.7832 21.1216C74.7832 21.6841 74.9062 22.2115 75.1523 22.7037C75.4102 23.1841 75.7734 23.5767 76.2422 23.8814C76.7109 24.1744 77.2559 24.3209 77.877 24.3209C78.5098 24.3209 79.0547 24.1744 79.5117 23.8814C79.9805 23.5767 80.3379 23.1841 80.584 22.7037C80.8418 22.2115 80.9707 21.6841 80.9707 21.1216C80.9707 20.5474 80.8418 20.0201 80.584 19.5396C80.3379 19.0474 79.9805 18.6548 79.5117 18.3619C79.0547 18.0572 78.5098 17.9048 77.877 17.9048ZM89.3027 16.4986C90.0645 16.4986 90.75 16.6861 91.3594 17.0611C91.9805 17.4244 92.4727 17.94 92.8359 18.608C93.2109 19.2642 93.3984 20.0377 93.3984 20.9283C93.3984 21.8892 93.2109 22.733 92.8359 23.4595C92.4727 24.1744 91.9688 24.731 91.3242 25.1295C90.6914 25.5279 89.9707 25.7271 89.1621 25.7271C88.6582 25.7271 88.1426 25.5923 87.6152 25.3228C87.0996 25.0533 86.6543 24.7076 86.2793 24.2857V29.6822H84.8379V16.6744H86.2793V18.1685C86.584 17.6998 86.9941 17.3072 87.5098 16.9908C88.0371 16.6627 88.6348 16.4986 89.3027 16.4986ZM89.0742 17.9048C88.5469 17.9048 88.0664 18.0396 87.6328 18.3091C87.2109 18.5787 86.877 18.9537 86.6309 19.4341C86.3965 19.9029 86.2793 20.4537 86.2793 21.0865L86.2969 22.774C86.6719 23.231 87.0645 23.606 87.4746 23.899C87.8848 24.1802 88.3594 24.3209 88.8984 24.3209C89.5312 24.3209 90.0703 24.1568 90.5156 23.8287C90.9609 23.5005 91.3008 23.0787 91.5352 22.563C91.7812 22.0357 91.9043 21.4908 91.9043 20.9283C91.9043 20.3541 91.7871 19.8443 91.5527 19.399C91.3184 18.942 90.9902 18.5787 90.5684 18.3091C90.1465 18.0396 89.6484 17.9048 89.0742 17.9048ZM99.0586 13.5103C99.75 13.5103 100.318 13.6099 100.764 13.8091C101.221 14.0084 101.619 14.2193 101.959 14.442V16.0767C101.631 15.8306 101.232 15.6021 100.764 15.3912C100.295 15.1685 99.7852 15.0572 99.2344 15.0572C98.8828 15.0572 98.5137 15.1216 98.127 15.2505C97.752 15.3677 97.4355 15.5611 97.1777 15.8306C96.9199 16.1002 96.791 16.4459 96.791 16.8677C96.791 17.3365 96.9609 17.6939 97.3008 17.94C97.6406 18.1861 98.0508 18.4205 98.5312 18.6431L100.148 19.3814C100.957 19.7447 101.566 20.149 101.977 20.5943C102.387 21.0396 102.592 21.6314 102.592 22.3697C102.592 23.0142 102.404 23.5826 102.029 24.0748C101.654 24.5552 101.162 24.9361 100.553 25.2173C99.9434 25.4986 99.2754 25.6392 98.5488 25.6392C97.8691 25.6392 97.2422 25.522 96.668 25.2877C96.0938 25.0533 95.5957 24.7896 95.1738 24.4966V22.8619C95.6309 23.1783 96.1523 23.4654 96.7383 23.7232C97.3359 23.9693 98.0098 24.0923 98.7598 24.0923C99.3457 24.0923 99.8613 23.9459 100.307 23.6529C100.752 23.3599 100.975 22.9556 100.975 22.44C100.975 22.147 100.881 21.8951 100.693 21.6841C100.518 21.4732 100.301 21.2916 100.043 21.1392C99.7852 20.9869 99.5332 20.858 99.2871 20.7525L97.3359 19.8736C96.4922 19.4986 95.918 19.0591 95.6133 18.5552C95.3086 18.0513 95.1562 17.4713 95.1562 16.815C95.1562 16.1939 95.332 15.6373 95.6836 15.1451C96.0469 14.6412 96.5273 14.2427 97.125 13.9498C97.7227 13.6568 98.3672 13.5103 99.0586 13.5103ZM107.391 14.1431V16.6744H109.957V18.0279H107.391V23.1783C107.391 23.5416 107.484 23.8287 107.672 24.0396C107.859 24.2505 108.146 24.356 108.533 24.356C108.885 24.356 109.178 24.315 109.412 24.233C109.646 24.1392 109.852 24.0396 110.027 23.9341V25.1119C109.793 25.2994 109.541 25.4459 109.271 25.5513C109.014 25.6685 108.662 25.7271 108.217 25.7271C107.467 25.7271 106.898 25.5045 106.512 25.0591C106.137 24.6021 105.949 23.9986 105.949 23.2486V18.0279H104.262V17.606C104.836 17.3482 105.316 16.9263 105.703 16.3404C106.09 15.7427 106.43 15.0103 106.723 14.1431H107.391ZM119.766 16.6744V21.8775C119.766 22.6509 119.602 23.3189 119.273 23.8814C118.945 24.4439 118.5 24.8775 117.938 25.1822C117.375 25.4869 116.742 25.6392 116.039 25.6392C115.336 25.6392 114.703 25.4869 114.141 25.1822C113.578 24.8775 113.133 24.4439 112.805 23.8814C112.477 23.3189 112.312 22.6509 112.312 21.8775V16.6744H113.807V21.8775C113.807 22.6392 114.029 23.2252 114.475 23.6353C114.932 24.0338 115.453 24.233 116.039 24.233C116.625 24.233 117.141 24.0338 117.586 23.6353C118.043 23.2252 118.271 22.6392 118.271 21.8775V16.6744H119.766ZM130.436 12.8072V25.4634H128.994V23.9693C128.689 24.438 128.273 24.8482 127.746 25.1998C127.23 25.5513 126.639 25.7271 125.971 25.7271C125.221 25.7271 124.535 25.5396 123.914 25.1646C123.293 24.7779 122.795 24.2447 122.42 23.565C122.057 22.8853 121.875 22.1002 121.875 21.2095C121.875 20.2369 122.057 19.399 122.42 18.6959C122.795 17.9927 123.305 17.4537 123.949 17.0787C124.594 16.692 125.314 16.4986 126.111 16.4986C126.615 16.4986 127.125 16.6216 127.641 16.8677C128.168 17.1021 128.619 17.4302 128.994 17.8521V12.8072H130.436ZM126.375 17.94C125.742 17.94 125.203 18.0982 124.758 18.4146C124.312 18.7193 123.967 19.1177 123.721 19.6099C123.486 20.1021 123.369 20.6353 123.369 21.2095C123.369 21.772 123.486 22.2935 123.721 22.774C123.955 23.2427 124.283 23.6177 124.705 23.899C125.139 24.1802 125.637 24.3209 126.199 24.3209C126.738 24.3209 127.219 24.1802 127.641 23.899C128.062 23.6177 128.396 23.231 128.643 22.7388C128.889 22.2349 129.006 21.6724 128.994 21.0513L128.977 19.3638C128.613 18.9068 128.221 18.5552 127.799 18.3091C127.389 18.063 126.914 17.94 126.375 17.94ZM134.83 12.4556C135.17 12.4556 135.451 12.5787 135.674 12.8248C135.908 13.0591 136.025 13.3345 136.025 13.6509C136.025 13.9556 135.908 14.231 135.674 14.4771C135.451 14.7232 135.17 14.8463 134.83 14.8463C134.49 14.8463 134.203 14.7232 133.969 14.4771C133.746 14.231 133.635 13.9556 133.635 13.6509C133.635 13.3345 133.746 13.0591 133.969 12.8248C134.203 12.5787 134.49 12.4556 134.83 12.4556ZM135.727 16.6744V25.4634H134.285V18.0279H132.896V16.6744H135.727ZM142.811 16.4986C143.701 16.4986 144.492 16.7095 145.184 17.1314C145.875 17.5533 146.414 18.1158 146.801 18.8189C147.199 19.522 147.398 20.2896 147.398 21.1216C147.398 21.9537 147.199 22.7213 146.801 23.4244C146.414 24.1158 145.875 24.6724 145.184 25.0943C144.492 25.5162 143.701 25.7271 142.811 25.7271C141.92 25.7271 141.129 25.5162 140.438 25.0943C139.746 24.6724 139.201 24.1158 138.803 23.4244C138.416 22.7213 138.223 21.9537 138.223 21.1216C138.223 20.2896 138.416 19.522 138.803 18.8189C139.201 18.1158 139.746 17.5533 140.438 17.1314C141.129 16.7095 141.92 16.4986 142.811 16.4986ZM142.811 17.9048C142.189 17.9048 141.645 18.0572 141.176 18.3619C140.707 18.6548 140.344 19.0474 140.086 19.5396C139.84 20.0201 139.717 20.5474 139.717 21.1216C139.717 21.6841 139.84 22.2115 140.086 22.7037C140.344 23.1841 140.707 23.5767 141.176 23.8814C141.645 24.1744 142.189 24.3209 142.811 24.3209C143.443 24.3209 143.988 24.1744 144.445 23.8814C144.914 23.5767 145.271 23.1841 145.518 22.7037C145.775 22.2115 145.904 21.6841 145.904 21.1216C145.904 20.5474 145.775 20.0201 145.518 19.5396C145.271 19.0474 144.914 18.6548 144.445 18.3619C143.988 18.0572 143.443 17.9048 142.811 17.9048Z" fill="#9F9F9F"/>
<defs>
<clipPath id="clip0_404_1421">
<rect width="42" height="38.9268" fill="white"/>
</clipPath>
</defs>
</svg>
