<svg width="42" height="39" viewBox="0 0 42 39" fill="none" xmlns="http://www.w3.org/2000/svg">
<g clip-path="url(#clip0_404_1423)">
<path d="M17.4608 8.94974C17.5393 8.98453 17.606 9.04152 17.6528 9.11377C17.6996 9.18601 17.7246 9.2704 17.7246 9.35665C17.7246 9.4429 17.6996 9.52728 17.6528 9.59953C17.606 9.67178 17.5393 9.72876 17.4608 9.76355L13.5237 11.5401L12.7577 11.8639C12.7018 11.8896 12.6411 11.9028 12.5796 11.9028C12.5182 11.9028 12.4574 11.8896 12.4015 11.8639L0.259622 6.35937C0.181947 6.32427 0.116069 6.26724 0.0699848 6.1952C0.0239002 6.12316 -0.000409693 6.03922 5.22392e-06 5.95355V1.82622C3.94613e-05 1.75208 0.0184972 1.67913 0.0536999 1.614C0.0889026 1.54886 0.139733 1.49362 0.201566 1.45329C0.2634 1.41296 0.334275 1.38883 0.407743 1.38308C0.481212 1.37734 0.554942 1.39016 0.622227 1.42039L1.21656 1.68807L17.4608 8.94974Z" fill="#858D94"/>
<path d="M41.9979 1.1959V5.3297C41.9979 5.41555 41.9731 5.49955 41.9267 5.57156C41.8802 5.64357 41.8141 5.70052 41.7362 5.73553L12.7492 18.791C12.6819 18.8212 12.6082 18.8341 12.5347 18.8283C12.4612 18.8226 12.3903 18.7984 12.3285 18.7581C12.2667 18.7178 12.2159 18.6625 12.1806 18.5974C12.1454 18.5323 12.127 18.4593 12.127 18.3852V14.1974C12.127 14.1116 12.1517 14.0276 12.1982 13.9556C12.2446 13.8835 12.3108 13.8266 12.3887 13.7916L41.3778 0.790073C41.445 0.760315 41.5185 0.747862 41.5917 0.753839C41.6649 0.759817 41.7354 0.784036 41.7969 0.82431C41.8585 0.864584 41.9091 0.919644 41.9442 0.984519C41.9792 1.04939 41.9977 1.12204 41.9979 1.1959V1.1959Z" fill="#1B9DE2"/>
<path d="M29.9955 13.5865V17.7548C29.9954 17.8407 29.9707 17.9247 29.9242 17.9967C29.8778 18.0687 29.8116 18.1257 29.7337 18.1607L12.7685 25.8239C12.7012 25.8541 12.6275 25.8669 12.554 25.8612C12.4805 25.8554 12.4097 25.8313 12.3478 25.791C12.286 25.7506 12.2352 25.6954 12.2 25.6303C12.1648 25.5651 12.1463 25.4922 12.1463 25.418V21.2324C12.1455 21.1458 12.1698 21.0609 12.2163 20.9881C12.2628 20.9152 12.3294 20.8576 12.408 20.8223L29.3732 13.1807C29.4405 13.1504 29.5142 13.1376 29.5877 13.1434C29.6612 13.1491 29.7321 13.1732 29.7939 13.2136C29.8557 13.2539 29.9066 13.3091 29.9418 13.3743C29.977 13.4394 29.9954 13.5124 29.9955 13.5865V13.5865Z" fill="#006CBF"/>
<path d="M29.9954 20.5805V24.7467C29.9951 24.8325 29.9703 24.9164 29.9238 24.9883C29.8774 25.0603 29.8114 25.1173 29.7336 25.1525L22.7798 28.2934L19.3811 29.8238L0.622222 38.2922C0.554937 38.3224 0.481206 38.3353 0.407738 38.3295C0.33427 38.3238 0.263395 38.2996 0.201561 38.2593C0.139728 38.219 0.0888974 38.1637 0.0536947 38.0986C0.018492 38.0335 3.42374e-05 37.9605 0 37.8864V33.7375C0.00233034 33.6535 0.0281226 33.5719 0.0744198 33.5021C0.120717 33.4322 0.185645 33.3769 0.261762 33.3424L17.0553 25.7548L17.7526 25.4396L19.3833 24.7035L22.7798 23.1687L29.3732 20.1747C29.4405 20.1445 29.5142 20.1316 29.5877 20.1374C29.6611 20.1431 29.732 20.1673 29.7938 20.2076C29.8557 20.2479 29.9065 20.3032 29.9417 20.3683C29.9769 20.4334 29.9954 20.5064 29.9954 20.5805Z" fill="#184F85"/>
<path d="M18.7418 6.63351V7.31565L18.7396 7.3178L18.7418 6.63351Z" fill="#5F6469"/>
<path d="M23.6166 0.442527V6.7026C23.6168 6.78905 23.5919 6.87368 23.545 6.94614C23.4981 7.0186 23.4313 7.07575 23.3527 7.11058L19.3597 8.88498C19.2925 8.91474 19.219 8.9272 19.1458 8.92122C19.0727 8.91524 19.0021 8.89102 18.9406 8.85075C18.8791 8.81047 18.8285 8.75541 18.7934 8.69054C18.7583 8.62566 18.7398 8.55302 18.7396 8.47916V8.47916V6.75224L18.7504 0.442527C18.7504 0.384232 18.7618 0.326511 18.784 0.272681C18.8063 0.21885 18.8389 0.169971 18.8799 0.128851C18.921 0.0877305 18.9698 0.0551802 19.0234 0.0330687C19.077 0.0109573 19.1344 -0.0002791 19.1923 5.26544e-06H23.1746C23.2325 -0.0002791 23.2899 0.0109573 23.3435 0.0330687C23.3972 0.0551802 23.4459 0.0877305 23.487 0.128851C23.528 0.169971 23.5606 0.21885 23.5829 0.272681C23.6051 0.326511 23.6166 0.384232 23.6166 0.442527Z" fill="#5F6469"/>
<path d="M41.9979 32.8136V36.9387C41.9979 37.0129 41.9794 37.0858 41.9442 37.151C41.909 37.2161 41.8582 37.2713 41.7963 37.3117C41.7345 37.352 41.6636 37.3761 41.5902 37.3819C41.5167 37.3876 41.443 37.3748 41.3757 37.3446L41.1375 37.2388L24.8932 29.9598C24.8148 29.925 24.7481 29.8681 24.7013 29.7958C24.6544 29.7236 24.6295 29.6392 24.6295 29.5529C24.6295 29.4667 24.6544 29.3823 24.7013 29.31C24.7481 29.2378 24.8148 29.1808 24.8932 29.146L28.8304 27.3803L29.5964 27.05C29.6523 27.0243 29.713 27.011 29.7745 27.011C29.8359 27.011 29.8966 27.0243 29.9525 27.05L41.7383 32.3948C41.818 32.4308 41.8853 32.4898 41.9315 32.5644C41.9778 32.639 42.0009 32.7257 41.9979 32.8136V32.8136Z" fill="#858D94"/>
<path d="M18.7396 38.4821V32.2221C18.7394 32.1356 18.7643 32.051 18.8112 31.9785C18.858 31.9061 18.9249 31.8489 19.0035 31.8141L22.9965 30.0418C23.0638 30.012 23.1375 29.9996 23.2109 30.0057C23.2842 30.0117 23.3549 30.0361 23.4165 30.0767C23.4781 30.1172 23.5286 30.1725 23.5636 30.2377C23.5985 30.3029 23.6167 30.3758 23.6166 30.4498V32.1767L23.6058 38.4843C23.6058 38.6022 23.5593 38.7153 23.4764 38.7987C23.3935 38.8821 23.2811 38.929 23.1638 38.929H19.1816C19.1234 38.929 19.0657 38.9174 19.012 38.8949C18.9582 38.8724 18.9094 38.8395 18.8683 38.798C18.8273 38.7565 18.7947 38.7072 18.7727 38.653C18.7506 38.5988 18.7393 38.5407 18.7396 38.4821V38.4821Z" fill="#5F6469"/>
</g>
<defs>
<clipPath id="clip0_404_1423">
<rect width="42" height="38.9268" fill="white"/>
</clipPath>
</defs>
</svg>
