<svg width="390" height="64" viewBox="0 0 390 64" fill="none" xmlns="http://www.w3.org/2000/svg">
<path d="M1.11035 47.2544V37.0981C2.95117 38.6427 4.95068 39.8065 7.10889 40.5894C9.26709 41.3511 11.4465 41.7319 13.647 41.7319C14.9377 41.7319 16.0591 41.6156 17.0112 41.3828C17.9845 41.1501 18.7886 40.8327 19.4233 40.4307C20.0793 40.0075 20.5659 39.5208 20.8833 38.9707C21.2007 38.3994 21.3594 37.7858 21.3594 37.1299C21.3594 36.2412 21.1055 35.4478 20.5977 34.7495C20.0898 34.0513 19.3916 33.4059 18.5029 32.8135C17.6354 32.221 16.5986 31.6497 15.3926 31.0996C14.1865 30.5495 12.8853 29.9888 11.4888 29.4175C7.93408 27.9364 5.27865 26.1273 3.52246 23.9902C1.78743 21.8532 0.919922 19.2718 0.919922 16.2461C0.919922 13.8763 1.396 11.8451 2.34814 10.1523C3.30029 8.43848 4.59098 7.03141 6.22021 5.93115C7.87061 4.83089 9.7749 4.02686 11.9331 3.51904C14.0913 2.99007 16.3765 2.72559 18.7886 2.72559C21.1584 2.72559 23.2531 2.8737 25.0728 3.16992C26.9136 3.44499 28.6063 3.87874 30.1509 4.47119V13.9609C29.3892 13.432 28.5534 12.9665 27.6436 12.5645C26.7549 12.1624 25.8345 11.8345 24.8823 11.5806C23.9302 11.3055 22.978 11.1045 22.0259 10.9775C21.0949 10.8506 20.2062 10.7871 19.3599 10.7871C18.1961 10.7871 17.1382 10.9035 16.186 11.1362C15.2339 11.3478 14.4299 11.6546 13.7739 12.0566C13.118 12.4587 12.6102 12.9453 12.2505 13.5166C11.8908 14.0667 11.7109 14.6909 11.7109 15.3892C11.7109 16.1509 11.9119 16.8385 12.314 17.4521C12.716 18.0446 13.2873 18.6159 14.0278 19.166C14.7684 19.695 15.6676 20.224 16.7256 20.7529C17.7835 21.2607 18.979 21.7897 20.312 22.3398C22.1317 23.1016 23.7609 23.9162 25.1997 24.7837C26.6597 25.63 27.908 26.5928 28.9448 27.6719C29.9816 28.751 30.7751 29.9888 31.3252 31.3853C31.8753 32.7606 32.1504 34.3687 32.1504 36.2095C32.1504 38.7485 31.6637 40.8856 30.6904 42.6206C29.7383 44.3345 28.437 45.731 26.7866 46.8101C25.1362 47.868 23.2108 48.6297 21.0103 49.0952C18.8309 49.5607 16.5246 49.7935 14.0913 49.7935C11.5946 49.7935 9.21419 49.5819 6.9502 49.1587C4.70736 48.7355 2.76074 48.1007 1.11035 47.2544ZM70.0459 49H60.0483V30.9409C60.0483 25.9051 58.2498 23.3872 54.6528 23.3872C52.9178 23.3872 51.4896 24.0537 50.3682 25.3867C49.2467 26.7197 48.686 28.4124 48.686 30.4648V49H38.6567V16.5H48.686V21.6416H48.813C51.2039 17.6849 54.6846 15.7065 59.2549 15.7065C66.4489 15.7065 70.0459 20.1711 70.0459 29.1001V49ZM93.5005 49.7935C88.0838 49.7935 83.8203 48.2806 80.71 45.2549C77.6208 42.208 76.0762 38.082 76.0762 32.877C76.0762 27.5026 77.6842 23.3026 80.9004 20.2769C84.1165 17.23 88.4647 15.7065 93.9448 15.7065C99.3403 15.7065 103.572 17.23 106.64 20.2769C109.708 23.3026 111.242 27.3122 111.242 32.3057C111.242 37.7012 109.655 41.9647 106.481 45.0962C103.329 48.2277 99.0018 49.7935 93.5005 49.7935ZM93.7544 23.3872C91.3846 23.3872 89.5438 24.2018 88.2319 25.8311C86.9201 27.4603 86.2642 29.7666 86.2642 32.75C86.2642 38.9919 88.7821 42.1128 93.8179 42.1128C98.6209 42.1128 101.022 38.9072 101.022 32.4961C101.022 26.4235 98.5998 23.3872 93.7544 23.3872ZM133.237 49.7935C127.82 49.7935 123.557 48.2806 120.446 45.2549C117.357 42.208 115.812 38.082 115.812 32.877C115.812 27.5026 117.421 23.3026 120.637 20.2769C123.853 17.23 128.201 15.7065 133.681 15.7065C139.077 15.7065 143.308 17.23 146.376 20.2769C149.444 23.3026 150.979 27.3122 150.979 32.3057C150.979 37.7012 149.392 41.9647 146.218 45.0962C143.065 48.2277 138.738 49.7935 133.237 49.7935ZM133.491 23.3872C131.121 23.3872 129.28 24.2018 127.968 25.8311C126.656 27.4603 126 29.7666 126 32.75C126 38.9919 128.518 42.1128 133.554 42.1128C138.357 42.1128 140.759 38.9072 140.759 32.4961C140.759 26.4235 138.336 23.3872 133.491 23.3872ZM167.641 45.2231H167.514V63.9487H157.485V16.5H167.514V21.3877H167.641C170.117 17.6003 173.597 15.7065 178.083 15.7065C182.294 15.7065 185.542 17.1559 187.827 20.0547C190.133 22.9323 191.286 26.8573 191.286 31.8296C191.286 37.2463 189.943 41.5944 187.255 44.874C184.589 48.1536 181.035 49.7935 176.591 49.7935C172.677 49.7935 169.694 48.27 167.641 45.2231ZM167.355 31.8931V34.4956C167.355 36.7384 167.948 38.5687 169.133 39.9863C170.318 41.404 171.873 42.1128 173.798 42.1128C176.083 42.1128 177.85 41.2347 179.099 39.4785C180.368 37.7012 181.003 35.1938 181.003 31.9565C181.003 26.2437 178.781 23.3872 174.338 23.3872C172.285 23.3872 170.603 24.1701 169.292 25.7358C168.001 27.2804 167.355 29.3328 167.355 31.8931ZM196.682 47.2544V37.0981C198.522 38.6427 200.522 39.8065 202.68 40.5894C204.838 41.3511 207.018 41.7319 209.218 41.7319C210.509 41.7319 211.63 41.6156 212.583 41.3828C213.556 41.1501 214.36 40.8327 214.995 40.4307C215.651 40.0075 216.137 39.5208 216.455 38.9707C216.772 38.3994 216.931 37.7858 216.931 37.1299C216.931 36.2412 216.677 35.4478 216.169 34.7495C215.661 34.0513 214.963 33.4059 214.074 32.8135C213.207 32.221 212.17 31.6497 210.964 31.0996C209.758 30.5495 208.457 29.9888 207.06 29.4175C203.505 27.9364 200.85 26.1273 199.094 23.9902C197.359 21.8532 196.491 19.2718 196.491 16.2461C196.491 13.8763 196.967 11.8451 197.919 10.1523C198.872 8.43848 200.162 7.03141 201.792 5.93115C203.442 4.83089 205.346 4.02686 207.504 3.51904C209.663 2.99007 211.948 2.72559 214.36 2.72559C216.73 2.72559 218.824 2.8737 220.644 3.16992C222.485 3.44499 224.178 3.87874 225.722 4.47119V13.9609C224.96 13.432 224.125 12.9665 223.215 12.5645C222.326 12.1624 221.406 11.8345 220.454 11.5806C219.501 11.3055 218.549 11.1045 217.597 10.9775C216.666 10.8506 215.778 10.7871 214.931 10.7871C213.767 10.7871 212.709 10.9035 211.757 11.1362C210.805 11.3478 210.001 11.6546 209.345 12.0566C208.689 12.4587 208.181 12.9453 207.822 13.5166C207.462 14.0667 207.282 14.6909 207.282 15.3892C207.282 16.1509 207.483 16.8385 207.885 17.4521C208.287 18.0446 208.859 18.6159 209.599 19.166C210.34 19.695 211.239 20.224 212.297 20.7529C213.355 21.2607 214.55 21.7897 215.883 22.3398C217.703 23.1016 219.332 23.9162 220.771 24.7837C222.231 25.63 223.479 26.5928 224.516 27.6719C225.553 28.751 226.346 29.9888 226.896 31.3853C227.447 32.7606 227.722 34.3687 227.722 36.2095C227.722 38.7485 227.235 40.8856 226.262 42.6206C225.31 44.3345 224.008 45.731 222.358 46.8101C220.708 47.868 218.782 48.6297 216.582 49.0952C214.402 49.5607 212.096 49.7935 209.663 49.7935C207.166 49.7935 204.785 49.5819 202.521 49.1587C200.279 48.7355 198.332 48.1007 196.682 47.2544ZM252.224 48.6191C250.743 49.402 248.51 49.7935 245.527 49.7935C238.46 49.7935 234.926 46.1224 234.926 38.7803V23.895H229.658V16.5H234.926V9.48584L244.924 6.62939V16.5H252.224V23.895H244.924V37.0347C244.924 40.4201 246.267 42.1128 248.955 42.1128C250.013 42.1128 251.102 41.806 252.224 41.1924V48.6191ZM288.786 49H278.789V44.0488H278.63C276.154 47.8786 272.843 49.7935 268.696 49.7935C261.163 49.7935 257.397 45.2337 257.397 36.1143V16.5H267.395V35.2256C267.395 39.8171 269.214 42.1128 272.854 42.1128C274.652 42.1128 276.091 41.4886 277.17 40.2402C278.249 38.9707 278.789 37.2568 278.789 35.0986V16.5H288.786V49ZM329.062 49H319.033V44.5249H318.906C316.621 48.0373 313.267 49.7935 308.845 49.7935C304.782 49.7935 301.513 48.3652 299.038 45.5088C296.562 42.6312 295.324 38.6216 295.324 33.48C295.324 28.1056 296.689 23.7998 299.418 20.5625C302.148 17.3252 305.724 15.7065 310.146 15.7065C314.335 15.7065 317.255 17.2088 318.906 20.2134H319.033V0.884766H329.062V49ZM319.223 33.1943V30.7505C319.223 28.6346 318.61 26.8784 317.382 25.4819C316.155 24.0854 314.558 23.3872 312.59 23.3872C310.368 23.3872 308.633 24.2653 307.385 26.0215C306.136 27.7565 305.512 30.1475 305.512 33.1943C305.512 36.0508 306.115 38.2513 307.321 39.7959C308.527 41.3405 310.199 42.1128 312.336 42.1128C314.367 42.1128 316.018 41.2982 317.287 39.6689C318.578 38.0397 319.223 35.8815 319.223 33.1943ZM342.583 11.3584C340.89 11.3584 339.504 10.8612 338.425 9.8667C337.346 8.85107 336.806 7.61328 336.806 6.15332C336.806 4.65104 337.346 3.42383 338.425 2.47168C339.504 1.51953 340.89 1.04346 342.583 1.04346C344.296 1.04346 345.682 1.51953 346.74 2.47168C347.819 3.42383 348.359 4.65104 348.359 6.15332C348.359 7.67676 347.819 8.92513 346.74 9.89844C345.682 10.8717 344.296 11.3584 342.583 11.3584ZM347.534 49H337.504V16.5H347.534V49ZM371.464 49.7935C366.048 49.7935 361.784 48.2806 358.674 45.2549C355.585 42.208 354.04 38.082 354.04 32.877C354.04 27.5026 355.648 23.3026 358.864 20.2769C362.08 17.23 366.429 15.7065 371.909 15.7065C377.304 15.7065 381.536 17.23 384.604 20.2769C387.672 23.3026 389.206 27.3122 389.206 32.3057C389.206 37.7012 387.619 41.9647 384.445 45.0962C381.293 48.2277 376.966 49.7935 371.464 49.7935ZM371.718 23.3872C369.348 23.3872 367.508 24.2018 366.196 25.8311C364.884 27.4603 364.228 29.7666 364.228 32.75C364.228 38.9919 366.746 42.1128 371.782 42.1128C376.585 42.1128 378.986 38.9072 378.986 32.4961C378.986 26.4235 376.564 23.3872 371.718 23.3872Z" fill="white"/>
</svg>
