<?xml version="1.0" encoding="UTF-8"?>
<svg xmlns="http://www.w3.org/2000/svg" xmlns:xlink="http://www.w3.org/1999/xlink" width="295.78pt" height="56.8pt" viewBox="0 0 295.78 56.8" version="1.1">
<defs>
<clipPath id="clip1">
  <path d="M 0 0 L 133 0 L 133 56.800781 L 0 56.800781 Z M 0 0 "/>
</clipPath>
<clipPath id="clip2">
  <path d="M 135 18 L 166 18 L 166 56.800781 L 135 56.800781 Z M 135 18 "/>
</clipPath>
<clipPath id="clip3">
  <path d="M 167 18 L 199 18 L 199 56.800781 L 167 56.800781 Z M 167 18 "/>
</clipPath>
<clipPath id="clip4">
  <path d="M 203 4 L 295.78125 4 L 295.78125 56.800781 L 203 56.800781 Z M 203 4 "/>
</clipPath>
</defs>
<g id="surface1">
<g clip-path="url(#clip1)" clip-rule="nonzero">
<path style=" stroke:none;fill-rule:nonzero;fill:rgb(0%,57.598877%,83.499146%);fill-opacity:1;" d="M 122.054688 28.957031 C 122.867188 32.632813 117.648438 35.722656 110.660156 36.78125 C 110.683594 35.140625 111.273438 30.761719 115.402344 28.609375 C 118.289063 27.144531 121.671875 27.210938 122.054688 28.957031 M 130.269531 42.105469 C 129.402344 42.105469 124.253906 47.800781 117.683594 48.28125 C 113.050781 48.652344 110.574219 45.304688 110.574219 43.125 C 124.835938 41.097656 130.667969 35.496094 130.667969 28.367188 C 130.667969 23.582031 126.574219 18.558594 119.84375 18.558594 C 105.078125 18.558594 101.144531 32.84375 100.679688 42.792969 C 100.335938 47.15625 97.84375 47.8125 95.894531 47.703125 C 93.945313 47.582031 92.511719 45.847656 92.863281 42.761719 L 95.75 23.113281 C 95.789063 22.777344 96.546875 18.804688 93.722656 18.683594 C 90.75 18.554688 86.847656 19.941406 86.183594 24.1875 C 85.527344 28.34375 85.253906 30.71875 84.726563 34.097656 C 84.308594 36.933594 83.78125 39.808594 83.546875 42.523438 C 83.011719 45.113281 82.097656 46.371094 79.382813 46.378906 C 75.933594 46.027344 76.011719 42.996094 76.375 40.441406 L 78.773438 23.15625 C 78.808594 22.820313 79.566406 18.804688 76.746094 18.683594 C 73.769531 18.558594 69.871094 19.984375 69.203125 24.230469 C 69.039063 25.28125 68.894531 26.21875 68.769531 27.089844 L 68.769531 27.0625 C 68.0625 32.007813 65.746094 34.222656 63.105469 33.628906 C 60.46875 33.039063 61.800781 25.679688 61.8125 25.589844 C 62.722656 19.4375 60.535156 17.273438 55.210938 19.5625 C 52.402344 20.765625 49.476563 23.878906 47.558594 26.207031 L 48.011719 23.113281 C 48.046875 22.777344 48.804688 18.804688 45.984375 18.683594 C 43.011719 18.554688 39.105469 19.945313 38.441406 24.1875 C 38.417969 24.34375 38.394531 24.5 38.367188 24.652344 L 38.367188 24.640625 C 38.367188 24.640625 38.042969 26.457031 37.566406 28.078125 C 37.363281 28.730469 37.160156 29.378906 37.019531 29.792969 C 36.4375 31.503906 35.800781 33.191406 35.085938 34.828125 C 34.371094 36.464844 33.585938 38.054688 32.722656 39.566406 C 32.289063 40.316406 31.839844 41.054688 31.355469 41.75 C 30.878906 42.449219 30.371094 43.121094 29.839844 43.738281 C 28.78125 44.984375 27.609375 46.035156 26.433594 46.769531 C 26.226563 46.890625 26.023438 47.003906 25.824219 47.105469 C 20.09375 49.597656 19.046875 44.058594 18.921875 43.230469 C 18.863281 42.824219 18.839844 42.402344 18.816406 41.96875 C 18.777344 41.257813 18.773438 40.515625 18.796875 39.753906 C 18.816406 38.996094 18.863281 38.210938 18.941406 37.421875 C 19.097656 35.84375 19.355469 34.222656 19.679688 32.59375 C 19.96875 31.132813 20.320313 29.667969 20.714844 28.199219 C 24.089844 28.578125 27.21875 28.875 28.34375 28.957031 C 31.042969 29.152344 32.578125 27.753906 32.839844 26.222656 C 33.042969 25.03125 32.898438 25.683594 33.390625 22.863281 C 34.113281 18.679688 33.265625 18.679688 29.839844 18.679688 C 29.839844 18.679688 27.414063 18.679688 23.996094 18.679688 C 24.082031 18.46875 24.160156 18.261719 24.246094 18.054688 C 25.523438 14.914063 27.164063 12.125 28.816406 8.992188 C 30.933594 4.964844 30.382813 4.03125 27.792969 1.804688 C 19.6875 -4.175781 15.613281 6.492188 14.664063 8.179688 C 13.902344 9.851563 13.261719 11.523438 12.507813 13.527344 C 11.871094 15.226563 11.289063 16.945313 10.765625 18.679688 L 2.34375 18.679688 C -0.234375 18.679688 0.0078125 21.035156 0.0078125 21.035156 C 0.0078125 23.238281 5.265625 25.230469 8.828125 26.277344 C 8.535156 27.722656 8.28125 29.171875 8.066406 30.65625 C 7.789063 32.636719 7.601563 34.65625 7.53125 36.730469 C 7.464844 38.804688 7.515625 40.933594 7.832031 43.15625 C 7.996094 44.277344 8.21875 45.414063 8.570313 46.578125 C 8.742188 47.160156 8.941406 47.75 9.179688 48.34375 C 9.421875 48.9375 9.703125 49.539063 10.027344 50.132813 C 10.679688 51.328125 11.546875 52.523438 12.671875 53.570313 C 13.792969 54.621094 15.183594 55.480469 16.617188 55.984375 C 17.335938 56.238281 18.058594 56.414063 18.761719 56.527344 C 19.46875 56.640625 20.324219 56.683594 20.984375 56.683594 C 22.285156 56.671875 23.589844 56.484375 24.84375 56.117188 C 26.09375 55.746094 27.269531 55.199219 28.3125 54.53125 C 29.355469 53.855469 30.269531 53.078125 31.066406 52.253906 C 32.65625 50.601563 33.792969 48.777344 34.726563 46.960938 C 34.933594 46.554688 35.128906 46.144531 35.316406 45.734375 C 34.992188 49.511719 35.15625 52.851563 36.566406 54.597656 C 39.257813 57.933594 43.042969 56.851563 43.40625 54.207031 C 43.730469 51.890625 44.445313 47.25 44.96875 43.8125 C 45.585938 40.238281 46.3125 38.121094 47.59375 35.191406 C 49.105469 31.75 53.390625 28.914063 53.3125 32.90625 C 53.085938 44.617188 61.84375 44.855469 66.902344 39.652344 C 66.179688 44.78125 65.957031 49.625 68.671875 52.917969 C 73.976563 59.355469 81.945313 56.164063 86.066406 53.351563 C 89.75 58.382813 99.371094 57.335938 103.542969 52.191406 C 106.554688 56.339844 112.144531 56.800781 116.308594 56.632813 C 128.253906 56.027344 135.652344 42.105469 130.269531 42.105469 "/>
</g>
<g clip-path="url(#clip2)" clip-rule="nonzero">
<path style=" stroke:none;fill-rule:nonzero;fill:rgb(0%,57.598877%,83.499146%);fill-opacity:1;" d="M 154.574219 18.707031 C 159.011719 18.707031 162.714844 20.390625 165.117188 22.878906 L 160.246094 29.546875 C 158.5 28.082031 156.898438 27.421875 155.226563 27.421875 C 150.066406 27.421875 146.792969 31.449219 146.792969 37.753906 C 146.792969 44.050781 150.214844 48.078125 154.863281 48.078125 C 157.480469 48.078125 159.589844 46.832031 161.335938 45.445313 L 165.621094 52.253906 C 162.136719 55.332031 157.554688 56.800781 153.628906 56.800781 C 143.59375 56.800781 135.820313 49.839844 135.820313 37.753906 C 135.820313 25.664063 144.613281 18.707031 154.574219 18.707031 "/>
</g>
<g clip-path="url(#clip3)" clip-rule="nonzero">
<path style=" stroke:none;fill-rule:nonzero;fill:rgb(0%,57.598877%,83.499146%);fill-opacity:1;" d="M 181.863281 48.449219 C 184.332031 48.449219 185.933594 47.273438 187.824219 45.371094 L 187.824219 39 C 180.1875 40.019531 177.714844 42.222656 177.714844 45.007813 C 177.714844 47.347656 179.316406 48.449219 181.863281 48.449219 M 187.824219 32.550781 C 187.605469 29.328125 186.003906 27.277344 182.152344 27.277344 C 179.101563 27.277344 176.046875 28.523438 172.558594 30.574219 L 168.777344 23.46875 C 173.355469 20.683594 178.515625 18.707031 184.1875 18.707031 C 193.421875 18.707031 198.511719 23.980469 198.511719 35.113281 L 198.511719 55.917969 L 189.785156 55.917969 L 188.984375 52.179688 L 188.769531 52.179688 C 185.714844 54.894531 182.296875 56.800781 178.226563 56.800781 C 171.683594 56.800781 167.542969 51.964844 167.542969 45.8125 C 167.542969 38.191406 173.574219 34.019531 187.824219 32.550781 "/>
</g>
<g clip-path="url(#clip4)" clip-rule="nonzero">
<path style=" stroke:none;fill-rule:nonzero;fill:rgb(0%,57.598877%,83.499146%);fill-opacity:1;" d="M 203.550781 55.917969 L 214.238281 55.917969 L 214.238281 4.566406 L 203.550781 4.566406 M 219.636719 55.917969 L 230.316406 55.917969 L 230.316406 4.566406 L 219.636719 4.566406 M 258.007813 34.019531 C 258.007813 29.839844 256.269531 26.90625 251.976563 26.90625 C 248.632813 26.90625 245.726563 29.183594 245 34.019531 Z M 251.757813 18.707031 C 262.011719 18.707031 267.097656 26.25 267.097656 36.140625 C 267.097656 38.042969 266.882813 39.800781 266.660156 40.683594 L 245.070313 40.683594 C 246.019531 46.175781 249.652344 48.59375 254.453125 48.59375 C 257.136719 48.59375 259.609375 47.789063 262.230469 46.175781 L 265.785156 52.695313 C 262.082031 55.257813 257.285156 56.800781 252.992188 56.800781 C 242.667969 56.800781 234.75 49.765625 234.75 37.753906 C 234.75 25.957031 243.109375 18.707031 251.757813 18.707031 Z M 271.5 19.582031 L 280.222656 19.582031 L 280.953125 25.957031 L 281.242188 25.957031 C 283.859375 21.050781 287.785156 18.707031 291.492188 18.707031 C 293.53125 18.707031 294.765625 18.996094 295.78125 19.4375 L 294.035156 28.742188 C 292.726563 28.378906 291.640625 28.152344 290.113281 28.152344 C 287.421875 28.152344 284.078125 29.914063 282.1875 34.824219 L 282.1875 55.917969 L 271.5 55.917969 L 271.5 19.582031 "/>
</g>
</g>
</svg>
