<svg width="395" height="76" viewBox="0 0 395 76" fill="none" xmlns="http://www.w3.org/2000/svg">
<g clip-path="url(#clip0_425_1417)">
<mask id="mask0_425_1417" style="mask-type:luminance" maskUnits="userSpaceOnUse" x="0" y="0" width="178" height="76">
<path d="M0 0H177.333V75.7344H0V0Z" fill="white"/>
</mask>
<g mask="url(#mask0_425_1417)">
<path d="M162.74 38.6094C163.823 43.5104 156.865 47.6302 147.547 49.0416C147.578 46.8541 148.365 41.0156 153.87 38.1458C157.719 36.1927 162.229 36.2812 162.74 38.6094ZM173.693 56.1406C172.536 56.1406 165.672 63.7344 156.911 64.375C150.734 64.8698 147.432 60.4062 147.432 57.5C166.448 54.7969 174.224 47.3281 174.224 37.8229C174.224 31.4427 168.766 24.7448 159.792 24.7448C140.104 24.7448 134.859 43.7916 134.24 57.0573C133.781 62.875 130.458 63.75 127.859 63.6041C125.26 63.4427 123.349 61.1302 123.818 57.0156L127.667 30.8177C127.719 30.3698 128.729 25.0729 124.964 24.9114C121 24.7396 115.797 26.5885 114.911 32.25C114.036 37.7916 113.672 40.9583 112.969 45.4635C112.411 49.2448 111.708 53.0781 111.396 56.6979C110.682 60.151 109.464 61.8281 105.844 61.8385C101.245 61.3698 101.349 57.3281 101.833 53.9219L105.031 30.875C105.078 30.4271 106.089 25.0729 102.328 24.9114C98.3594 24.7448 93.1614 26.6458 92.2708 32.3073C92.0521 33.7083 91.8594 34.9583 91.6927 36.1198V36.0833C90.75 42.6771 87.6614 45.6302 84.1406 44.8385C80.625 44.0521 82.401 34.2396 82.4166 34.1198C83.6302 25.9166 80.7135 23.0312 73.6146 26.0833C69.8698 27.6875 65.9687 31.8385 63.4114 34.9427L64.0156 30.8177C64.0625 30.3698 65.0729 25.0729 61.3125 24.9114C57.3489 24.7396 52.1406 26.5937 51.2552 32.25C51.2239 32.4583 51.1927 32.6666 51.1562 32.8698V32.8541C51.1562 32.8541 50.7239 35.276 50.0885 37.4375C49.8177 38.3073 49.5469 39.1719 49.3594 39.7239C48.5833 42.0052 47.7344 44.2552 46.7812 46.4375C45.8281 48.6198 44.7812 50.7396 43.6302 52.7552C43.0521 53.7552 42.4531 54.7396 41.8073 55.6666C41.1719 56.5989 40.4948 57.4948 39.7864 58.3177C38.375 59.9791 36.8125 61.3802 35.2448 62.3594C34.9687 62.5208 34.6979 62.6719 34.4323 62.8073C26.7916 66.1302 25.3958 58.7448 25.2291 57.6406C25.151 57.0989 25.1198 56.5364 25.0885 55.9583C25.0364 55.0104 25.0312 54.0208 25.0625 53.0052C25.0885 51.9948 25.151 50.9479 25.2552 49.8958C25.4635 47.7916 25.8073 45.6302 26.2396 43.4583C26.625 41.5104 27.0937 39.5573 27.6198 37.5989C32.1198 38.1041 36.2916 38.5 37.7916 38.6094C41.3906 38.8698 43.4375 37.0052 43.7864 34.9635C44.0573 33.375 43.8646 34.2448 44.5208 30.4844C45.4844 24.9062 44.3541 24.9062 39.7864 24.9062C39.7864 24.9062 36.5521 24.9062 31.9948 24.9062C32.1094 24.625 32.2135 24.3489 32.3281 24.0729C34.0312 19.8854 36.2187 16.1666 38.4219 11.9896C41.2448 6.61977 40.5104 5.37498 37.0573 2.40623C26.25 -5.56773 20.8177 8.65623 19.5521 10.9062C18.5364 13.1354 17.6823 15.3646 16.6771 18.0364C15.8281 20.3021 15.0521 22.5937 14.3541 24.9062H3.12498C-0.312519 24.9062 0.0103973 28.0469 0.0103973 28.0469C0.0103973 30.9844 7.02081 33.6406 11.7708 35.0364C11.3802 36.9635 11.0416 38.8958 10.7552 40.875C10.3854 43.5156 10.1354 46.2083 10.0416 48.9739C9.95311 51.7396 10.0208 54.5781 10.4427 57.5416C10.6614 59.0364 10.9583 60.5521 11.4271 62.1041C11.6562 62.8802 11.9219 63.6666 12.2396 64.4583C12.5625 65.25 12.9375 66.0521 13.3698 66.8437C14.2396 68.4375 15.3958 70.0312 16.8958 71.4271C18.3906 72.8281 20.2448 73.9739 22.1562 74.6458C23.1146 74.9844 24.0781 75.2187 25.0156 75.3698C25.9583 75.5208 27.0989 75.5781 27.9791 75.5781C29.7135 75.5625 31.4531 75.3125 33.125 74.8229C34.7916 74.3281 36.3594 73.5989 37.75 72.7083C39.1406 71.8073 40.3594 70.7708 41.4219 69.6719C43.5416 67.4687 45.0573 65.0364 46.3021 62.6146C46.5781 62.0729 46.8385 61.526 47.0885 60.9791C46.6562 66.0156 46.875 70.4687 48.7552 72.7969C52.3437 77.2448 57.3906 75.8021 57.875 72.276C58.3073 69.1875 59.2604 63 59.9583 58.4166C60.7812 53.651 61.75 50.8281 63.4583 46.9219C65.4739 42.3333 71.1875 38.5521 71.0833 43.875C70.7812 59.4896 82.4583 59.8073 89.2031 52.8698C88.2396 59.7083 87.9427 66.1666 91.5625 70.5573C98.6354 79.1406 109.26 74.8854 114.755 71.1354C119.667 77.8437 132.495 76.4479 138.057 69.5885C142.073 75.1198 149.526 75.7344 155.078 75.5104C171.005 74.7031 180.87 56.1406 173.693 56.1406Z" fill="#E3E3E3"/>
</g>
<mask id="mask1_425_1417" style="mask-type:luminance" maskUnits="userSpaceOnUse" x="180" y="24" width="42" height="52">
<path d="M180 24H221.333V75.7344H180V24Z" fill="white"/>
</mask>
<g mask="url(#mask1_425_1417)">
<path d="M206.099 24.9426C212.016 24.9426 216.953 27.1874 220.156 30.5051L213.661 39.3958C211.333 37.4426 209.198 36.5624 206.969 36.5624C200.089 36.5624 195.724 41.9322 195.724 50.3385C195.724 58.7343 200.286 64.1041 206.484 64.1041C209.974 64.1041 212.786 62.4426 215.115 60.5937L220.828 69.6718C216.182 73.776 210.073 75.7343 204.839 75.7343C191.458 75.7343 181.094 66.453 181.094 50.3385C181.094 34.2187 192.818 24.9426 206.099 24.9426Z" fill="#E3E3E3"/>
</g>
<mask id="mask2_425_1417" style="mask-type:luminance" maskUnits="userSpaceOnUse" x="222" y="24" width="44" height="52">
<path d="M222.667 24H265.333V75.7344H222.667V24Z" fill="white"/>
</mask>
<g mask="url(#mask2_425_1417)">
<path d="M242.484 64.5989C245.776 64.5989 247.911 63.0312 250.432 60.4947V51.9999C240.25 53.3593 236.953 56.2968 236.953 60.0103C236.953 63.1301 239.089 64.5989 242.484 64.5989ZM250.432 43.401C250.141 39.1041 248.005 36.3697 242.87 36.3697C238.802 36.3697 234.729 38.0312 230.078 40.7655L225.036 31.2916C231.141 27.578 238.021 24.9426 245.583 24.9426C257.896 24.9426 264.682 31.9739 264.682 46.8176V74.5572H253.047L251.979 69.5728H251.693C247.62 73.1926 243.062 75.7343 237.635 75.7343C228.911 75.7343 223.391 69.2864 223.391 61.0833C223.391 50.9218 231.432 45.3593 250.432 43.401Z" fill="#E3E3E3"/>
</g>
<mask id="mask3_425_1417" style="mask-type:luminance" maskUnits="userSpaceOnUse" x="270" y="5" width="125" height="71">
<path d="M270.667 5.33325H394.375V75.7343H270.667V5.33325Z" fill="white"/>
</mask>
<g mask="url(#mask3_425_1417)">
<path d="M271.401 74.5571H285.651V6.08838H271.401M292.849 74.5571H307.089V6.08838H292.849M344.01 45.3592C344.01 39.7863 341.693 35.8748 335.969 35.8748C331.51 35.8748 327.635 38.9113 326.667 45.3592H344.01ZM335.677 24.9425C349.349 24.9425 356.13 34.9998 356.13 48.1873C356.13 50.7238 355.844 53.0675 355.547 54.2446H326.76C328.026 61.5675 332.87 64.7915 339.271 64.7915C342.849 64.7915 346.146 63.7186 349.641 61.5675L354.38 70.2603C349.443 73.6769 343.047 75.7342 337.323 75.7342C323.557 75.7342 313 66.354 313 50.3384C313 34.6092 324.146 24.9425 335.677 24.9425ZM362 26.1092H373.63L374.604 34.6092H374.99C378.479 28.0675 383.714 24.9425 388.656 24.9425C391.375 24.9425 393.021 25.328 394.375 25.9165L392.047 38.3228C390.302 37.8384 388.854 37.5363 386.818 37.5363C383.229 37.5363 378.771 39.8853 376.25 46.4321V74.5571H362V26.1092Z" fill="#E3E3E3"/>
</g>
</g>
<defs>
<clipPath id="clip0_425_1417">
<rect width="394.373" height="75.7333" fill="white"/>
</clipPath>
</defs>
</svg>
