<svg width="309" height="82" viewBox="0 0 309 82" fill="none" xmlns="http://www.w3.org/2000/svg">
<path d="M135.721 66.939C134.561 66.8046 133.645 66.4016 132.971 65.7299C132.324 65.0581 132 64.2117 132 63.1906C132 62.4114 132.189 61.6053 132.566 60.7723L141.828 39.7734C142.34 38.5911 143.23 38 144.497 38C145.737 38 146.614 38.5911 147.126 39.7734L156.388 60.7723C156.765 61.659 156.954 62.4651 156.954 63.1906C156.954 64.2117 156.617 65.0581 155.943 65.7299C155.296 66.4016 154.379 66.8046 153.193 66.939L149.795 59.281H139.159L135.721 66.939ZM148.137 54.6863L143.688 43.6427L143.203 43.8442L144.174 46.3431L140.776 54.6863H148.137ZM163.723 49.9303C163.723 48.6943 164.114 47.7404 164.895 47.0686C165.704 46.3969 166.918 46.061 168.535 46.061V48.4793C168.212 48.8555 167.888 49.2854 167.565 49.7691L167.807 49.9303C168.616 48.7211 169.654 47.7807 170.922 47.1089C172.189 46.4103 173.591 46.061 175.128 46.061C176.503 46.061 177.716 46.37 178.768 46.988C179.819 47.606 180.628 48.4524 181.194 49.5272C181.788 50.602 182.084 51.8112 182.084 53.1547V63.8758C182.084 64.9506 181.666 65.7298 180.83 66.2135C179.995 66.6972 178.727 66.939 177.029 66.939V53.8802C177.029 52.8591 176.719 52.0261 176.098 51.3813C175.505 50.7364 174.629 50.4139 173.47 50.4139C172.094 50.4139 170.962 50.8439 170.072 51.7037C169.182 52.5367 168.738 53.5846 168.738 54.8475V63.8758C168.738 64.9506 168.333 65.7298 167.524 66.2135C166.715 66.6972 165.448 66.939 163.723 66.939V49.9303ZM196.136 66.939C194.761 66.939 193.493 66.6703 192.334 66.1329C191.202 65.5955 190.285 64.8297 189.584 63.8355C188.91 62.8145 188.573 61.6053 188.573 60.2081C188.573 58.8108 188.937 57.6017 189.665 56.5806C190.393 55.5327 191.377 54.74 192.617 54.2026C193.884 53.6383 195.273 53.3562 196.783 53.3562C198.023 53.3562 199.129 53.5577 200.099 53.9608C201.097 54.337 202.014 54.9147 202.849 55.6939L203.052 55.4924C202.809 55.2505 202.391 54.8878 201.798 54.4041V53.598C201.798 52.4964 201.407 51.6231 200.625 50.9782C199.843 50.3333 198.751 50.0109 197.349 50.0109C194.842 50.0109 192.995 50.9245 191.808 52.7516C191.215 52.5635 190.716 52.268 190.312 51.8649C189.907 51.435 189.705 50.9782 189.705 50.4946C189.705 49.6885 190.069 48.9495 190.797 48.2778C191.525 47.606 192.509 47.0686 193.75 46.6656C194.99 46.2625 196.338 46.061 197.794 46.061C200.652 46.061 202.863 46.7328 204.427 48.0763C205.991 49.3929 206.772 51.1932 206.772 53.4771V63.5534C206.772 64.7357 206.395 65.5955 205.64 66.1329C204.885 66.6703 203.699 66.939 202.081 66.939V65.2865C202.539 64.8297 202.849 64.4938 203.011 64.2789L202.849 64.0773C201.96 65.0178 201.002 65.7298 199.978 66.2135C198.98 66.6972 197.7 66.939 196.136 66.939ZM197.43 63.2712C198.832 63.2712 199.924 63.0025 200.706 62.4651C201.488 61.9277 201.879 61.1619 201.879 60.1678C201.879 59.2004 201.474 58.4346 200.665 57.8704C199.884 57.3061 198.818 57.024 197.47 57.024C196.23 57.024 195.246 57.3061 194.518 57.8704C193.817 58.4078 193.466 59.1736 193.466 60.1678C193.466 61.1888 193.817 61.968 194.518 62.5054C195.219 63.016 196.19 63.2712 197.43 63.2712ZM220.766 66.939C218.529 66.939 216.83 66.3076 215.67 65.0447C214.538 63.7549 213.972 62.1293 213.972 60.1678V41.0632C213.972 39.9615 214.376 39.1823 215.185 38.7255C216.021 38.2418 217.302 38 219.027 38V59.9662C219.027 60.8798 219.23 61.5516 219.634 61.9815C220.038 62.3845 220.686 62.5861 221.575 62.5861C222.573 62.5861 223.571 62.3308 224.568 61.8203C224.838 62.0621 225.04 62.3711 225.175 62.7473C225.337 63.0966 225.417 63.4593 225.417 63.8355C225.417 64.6416 225.013 65.3671 224.204 66.012C223.395 66.63 222.249 66.939 220.766 66.939ZM232.563 75C231.511 75 230.675 74.6373 230.055 73.9118C229.462 73.1863 229.165 72.1383 229.165 70.768C229.974 70.9023 230.648 70.9695 231.187 70.9695C232.212 70.9695 233.021 70.7008 233.614 70.1634C234.234 69.626 234.908 68.5512 235.636 66.939L236.283 65.4477L228.478 46.4641C228.666 46.3566 228.99 46.2625 229.448 46.1819C229.934 46.1013 230.325 46.061 230.621 46.061C231.403 46.061 232.118 46.2357 232.765 46.585C233.412 46.9074 233.857 47.3642 234.099 47.9553L238.427 59.281L237.739 61.1754L238.103 61.2963L243.321 47.9553C243.563 47.3373 243.995 46.8671 244.615 46.5447C245.262 46.2222 245.977 46.061 246.758 46.061C247.055 46.061 247.432 46.1013 247.891 46.1819C248.376 46.2625 248.727 46.3566 248.942 46.4641L239.883 68.39C238.939 70.6471 237.901 72.313 236.769 73.3878C235.663 74.4626 234.261 75 232.563 75ZM262.052 66.939C259.463 66.939 257.374 66.4822 255.783 65.5686C254.219 64.6282 253.424 63.3787 253.397 61.8203C253.397 61.1485 253.666 60.5842 254.205 60.1275C254.772 59.6707 255.661 59.4288 256.875 59.402C257.117 60.5842 257.684 61.4978 258.573 62.1427C259.463 62.7607 260.542 63.0697 261.809 63.0697C263.184 63.0697 264.263 62.8951 265.044 62.5458C265.826 62.1964 266.217 61.6725 266.217 60.9739C266.217 60.329 265.894 59.7916 265.247 59.3617C264.627 58.9317 263.386 58.5018 261.526 58.0719C259.504 57.5882 257.926 57.1046 256.794 56.6209C255.688 56.1373 254.866 55.5192 254.327 54.7669C253.788 54.0145 253.518 53.0203 253.518 51.7843C253.518 50.0646 254.246 48.6808 255.702 47.6329C257.158 46.585 259.153 46.061 261.688 46.061C264.141 46.061 266.177 46.5044 267.795 47.3911C269.412 48.2509 270.221 49.4063 270.221 50.8573C270.221 51.5828 269.952 52.1202 269.412 52.4695C268.873 52.8188 267.983 53.0069 266.743 53.0338C266.473 51.959 265.961 51.1529 265.206 50.6155C264.451 50.0781 263.386 49.8094 262.011 49.8094C260.987 49.8094 260.097 49.984 259.342 50.3333C258.614 50.6826 258.25 51.1394 258.25 51.7037C258.25 52.2948 258.56 52.7516 259.18 53.0741C259.8 53.3965 260.879 53.719 262.416 54.0414C265.435 54.6863 267.619 55.5461 268.968 56.6209C270.343 57.6957 271.03 59.1601 271.03 61.0142C271.03 62.8145 270.221 64.252 268.604 65.3268C267.013 66.4016 264.829 66.939 262.052 66.939ZM280.844 44.1667C279.873 44.1667 279.064 43.8845 278.417 43.3203C277.797 42.7291 277.487 41.9768 277.487 41.0632C277.487 40.1765 277.797 39.451 278.417 38.8867C279.064 38.2956 279.873 38 280.844 38C281.815 38 282.61 38.2956 283.23 38.8867C283.877 39.451 284.201 40.1765 284.201 41.0632C284.201 41.9768 283.877 42.7291 283.23 43.3203C282.61 43.8845 281.815 44.1667 280.844 44.1667ZM278.296 49.1242C278.296 48.0225 278.714 47.2433 279.55 46.7865C280.386 46.3028 281.653 46.061 283.351 46.061V63.8758C283.351 64.9506 282.934 65.7298 282.098 66.2135C281.262 66.6972 279.995 66.939 278.296 66.939V49.1242ZM300.021 66.939C297.433 66.939 295.343 66.4822 293.753 65.5686C292.189 64.6282 291.393 63.3787 291.366 61.8203C291.366 61.1485 291.636 60.5842 292.175 60.1275C292.742 59.6707 293.631 59.4288 294.845 59.402C295.087 60.5842 295.653 61.4978 296.543 62.1427C297.433 62.7607 298.512 63.0697 299.779 63.0697C301.154 63.0697 302.232 62.8951 303.014 62.5458C303.796 62.1964 304.187 61.6725 304.187 60.9739C304.187 60.329 303.864 59.7916 303.217 59.3617C302.596 58.9317 301.356 58.5018 299.496 58.0719C297.473 57.5882 295.896 57.1046 294.764 56.6209C293.658 56.1373 292.836 55.5192 292.297 54.7669C291.757 54.0145 291.488 53.0203 291.488 51.7843C291.488 50.0646 292.216 48.6808 293.672 47.6329C295.128 46.585 297.123 46.061 299.657 46.061C302.111 46.061 304.147 46.5044 305.764 47.3911C307.382 48.2509 308.191 49.4063 308.191 50.8573C308.191 51.5828 307.921 52.1202 307.382 52.4695C306.843 52.8188 305.953 53.0069 304.713 53.0338C304.443 51.959 303.931 51.1529 303.176 50.6155C302.421 50.0781 301.356 49.8094 299.981 49.8094C298.956 49.8094 298.067 49.984 297.312 50.3333C296.584 50.6826 296.22 51.1394 296.22 51.7037C296.22 52.2948 296.53 52.7516 297.15 53.0741C297.77 53.3965 298.849 53.719 300.385 54.0414C303.405 54.6863 305.589 55.5461 306.937 56.6209C308.312 57.6957 309 59.1601 309 61.0142C309 62.8145 308.191 64.252 306.573 65.3268C304.983 66.4016 302.799 66.939 300.021 66.939Z" fill="#E0E0E0"/>
<path d="M4.96484 67V23.5879H20.7676C25.6113 23.5879 29.335 24.4759 31.9385 26.252C34.542 28.028 35.8438 30.5306 35.8438 33.7598C35.8438 36.1009 35.0465 38.1494 33.4521 39.9053C31.8779 41.6611 29.8597 42.8822 27.3975 43.5684V43.6895C30.4854 44.0729 32.9476 45.2132 34.7842 47.1104C36.641 49.0075 37.5693 51.3184 37.5693 54.043C37.5693 58.0189 36.1465 61.1774 33.3008 63.5186C30.4551 65.8395 26.57 67 21.6455 67H4.96484ZM14.7432 30.793V41.0859H19.042C21.0602 41.0859 22.6445 40.6016 23.7949 39.6328C24.9655 38.6439 25.5508 37.2917 25.5508 35.5762C25.5508 32.3874 23.1693 30.793 18.4062 30.793H14.7432ZM14.7432 48.3516V59.7949H20.041C22.3014 59.7949 24.0674 59.2702 25.3389 58.2207C26.6305 57.1712 27.2764 55.7383 27.2764 53.9219C27.2764 52.1862 26.6406 50.8239 25.3691 49.835C24.1178 48.846 22.362 48.3516 20.1016 48.3516H14.7432Z" fill="white"/>
<path d="M77.4502 31.5498H65.0684V67H55.2598V31.5498H42.9385V23.5879H77.4502V31.5498Z" fill="white"/>
<path d="M86.9668 65.335V55.6475C88.7227 57.1208 90.6299 58.2308 92.6885 58.9775C94.7471 59.7041 96.8258 60.0674 98.9248 60.0674C100.156 60.0674 101.226 59.9564 102.134 59.7344C103.062 59.5124 103.829 59.2096 104.435 58.8262C105.06 58.4225 105.524 57.9583 105.827 57.4336C106.13 56.8887 106.281 56.3034 106.281 55.6777C106.281 54.8301 106.039 54.0732 105.555 53.4072C105.07 52.7412 104.404 52.1257 103.557 51.5605C102.729 50.9954 101.74 50.4505 100.59 49.9258C99.4395 49.401 98.1982 48.8662 96.8662 48.3213C93.4756 46.9085 90.9427 45.1829 89.2676 43.1445C87.6126 41.1061 86.7852 38.6439 86.7852 35.7578C86.7852 33.4974 87.2393 31.5599 88.1475 29.9453C89.0557 28.3105 90.2868 26.9684 91.8408 25.9189C93.415 24.8695 95.2314 24.1025 97.29 23.6182C99.3486 23.1136 101.528 22.8613 103.829 22.8613C106.09 22.8613 108.088 23.0026 109.823 23.2852C111.579 23.5475 113.194 23.9613 114.667 24.5264V33.5781C113.94 33.0736 113.143 32.6296 112.275 32.2461C111.428 31.8626 110.55 31.5498 109.642 31.3076C108.733 31.0452 107.825 30.8535 106.917 30.7324C106.029 30.6113 105.181 30.5508 104.374 30.5508C103.264 30.5508 102.255 30.6618 101.347 30.8838C100.438 31.0856 99.6715 31.3783 99.0459 31.7617C98.4202 32.1452 97.9359 32.6094 97.5928 33.1543C97.2497 33.679 97.0781 34.2744 97.0781 34.9404C97.0781 35.667 97.2699 36.3229 97.6533 36.9082C98.0368 37.4733 98.5817 38.0182 99.2881 38.543C99.9945 39.0475 100.852 39.5521 101.861 40.0566C102.87 40.541 104.011 41.0456 105.282 41.5703C107.018 42.2969 108.572 43.0739 109.944 43.9014C111.337 44.7087 112.528 45.627 113.517 46.6562C114.506 47.6855 115.262 48.8662 115.787 50.1982C116.312 51.5101 116.574 53.0439 116.574 54.7998C116.574 57.2217 116.11 59.2601 115.182 60.915C114.273 62.5498 113.032 63.8818 111.458 64.9111C109.884 65.9202 108.047 66.6468 105.948 67.0908C103.869 67.5348 101.67 67.7568 99.3486 67.7568C96.9671 67.7568 94.6966 67.555 92.5371 67.1514C90.3978 66.7477 88.541 66.1423 86.9668 65.335Z" fill="white"/>
</svg>
