<svg width="156" height="50" viewBox="0 0 156 50" fill="none" xmlns="http://www.w3.org/2000/svg">
<g clip-path="url(#clip0_404_1418)">
<path d="M22.0339 11.2937C22.1329 11.3376 22.2171 11.4095 22.2762 11.5007C22.3353 11.5919 22.3667 11.6984 22.3667 11.8072C22.3667 11.916 22.3353 12.0225 22.2762 12.1137C22.2171 12.2049 22.1329 12.2768 22.0339 12.3207L17.0656 14.5625L16.099 14.9711C16.0285 15.0035 15.9518 15.0203 15.8743 15.0203C15.7967 15.0203 15.7201 15.0035 15.6496 14.9711L0.327618 8.02491C0.2296 7.98062 0.146469 7.90865 0.0883141 7.81775C0.0301597 7.72684 -0.000516994 7.62091 6.59209e-06 7.5128V2.30451C4.97964e-05 2.21095 0.0233417 2.11889 0.0677642 2.0367C0.112187 1.95451 0.176329 1.8848 0.254358 1.83391C0.332386 1.78302 0.421823 1.75256 0.514533 1.74531C0.607243 1.73806 0.700284 1.75424 0.785192 1.79239L1.53518 2.13017L22.0339 11.2937Z" fill="#858D94"/>
<path d="M52.9973 1.50911V6.72557C52.9972 6.83391 52.966 6.93991 52.9074 7.03078C52.8488 7.12165 52.7653 7.19351 52.667 7.23769L16.0882 23.7125C16.0033 23.7506 15.9102 23.7668 15.8175 23.7595C15.7248 23.7523 15.6354 23.7218 15.5573 23.6709C15.4793 23.6201 15.4152 23.5503 15.3707 23.4681C15.3263 23.386 15.303 23.2939 15.303 23.2003V17.9158C15.303 17.8074 15.3342 17.7014 15.3929 17.6106C15.4515 17.5197 15.535 17.4478 15.6333 17.4037L52.2148 0.996997C52.2996 0.959445 52.3923 0.94373 52.4847 0.951273C52.577 0.958816 52.666 0.989378 52.7437 1.0402C52.8213 1.09102 52.8852 1.1605 52.9294 1.24237C52.9737 1.32424 52.997 1.41591 52.9973 1.50911V1.50911Z" fill="#1B9DE2"/>
<path d="M37.8514 17.1449V22.4049C37.8513 22.5132 37.8201 22.6192 37.7615 22.7101C37.7029 22.801 37.6194 22.8729 37.5211 22.917L16.1126 32.5872C16.0277 32.6254 15.9347 32.6416 15.8419 32.6343C15.7492 32.6271 15.6598 32.5966 15.5818 32.5457C15.5037 32.4948 15.4396 32.4251 15.3952 32.3429C15.3508 32.2607 15.3275 32.1687 15.3274 32.0751V26.7933C15.3264 26.684 15.3571 26.5769 15.4158 26.4849C15.4745 26.393 15.5586 26.3203 15.6577 26.2757L37.0662 16.6328C37.1511 16.5946 37.2442 16.5784 37.3369 16.5857C37.4296 16.5929 37.519 16.6234 37.597 16.6743C37.6751 16.7252 37.7392 16.7949 37.7836 16.8771C37.8281 16.9593 37.8514 17.0513 37.8514 17.1449V17.1449Z" fill="#006CBF"/>
<path d="M37.8513 25.9707V31.228C37.851 31.3363 37.8196 31.4421 37.761 31.5329C37.7025 31.6237 37.6191 31.6957 37.521 31.7401L28.7459 35.7035L24.4572 37.6349L0.785185 48.3211C0.700277 48.3593 0.607237 48.3755 0.514527 48.3682C0.421816 48.361 0.332379 48.3305 0.254351 48.2796C0.176323 48.2287 0.11218 48.159 0.0677576 48.0768C0.0233352 47.9946 4.32043e-05 47.9026 0 47.809V42.5735C0.00294067 42.4676 0.035488 42.3646 0.0939107 42.2764C0.152333 42.1883 0.234267 42.1185 0.330319 42.075L21.5222 32.5001L22.4021 32.1024L24.4599 31.1735L28.7459 29.2368L37.0662 25.4586C37.1511 25.4204 37.2441 25.4042 37.3368 25.4115C37.4295 25.4187 37.519 25.4492 37.597 25.5001C37.675 25.551 37.7392 25.6207 37.7836 25.7029C37.828 25.7851 37.8513 25.8771 37.8513 25.9707Z" fill="#184F85"/>
<path d="M23.6503 8.37085V9.23163L23.6476 9.23436L23.6503 8.37085Z" fill="#5F6469"/>
<path d="M29.8018 0.558427V8.45804C29.8021 8.56713 29.7707 8.67393 29.7115 8.76537C29.6524 8.85681 29.568 8.92892 29.4688 8.97287L24.4301 11.212C24.3453 11.2496 24.2525 11.2653 24.1602 11.2577C24.0679 11.2502 23.9788 11.2196 23.9012 11.1688C23.8235 11.118 23.7597 11.0485 23.7154 10.9666C23.6711 10.8848 23.6478 10.7931 23.6476 10.6999V10.6999V8.52069L23.6611 0.558427C23.6611 0.484864 23.6756 0.412026 23.7036 0.344097C23.7317 0.276168 23.7728 0.214487 23.8246 0.162597C23.8765 0.110708 23.938 0.0696321 24.0056 0.0417296C24.0733 0.013827 24.1458 -0.000352198 24.2189 6.64449e-06H29.2441C29.3172 -0.000352198 29.3896 0.013827 29.4573 0.0417296C29.525 0.0696321 29.5865 0.110708 29.6383 0.162597C29.6901 0.214487 29.7312 0.276168 29.7593 0.344097C29.7874 0.412026 29.8018 0.484864 29.8018 0.558427Z" fill="#5F6469"/>
<path d="M52.9973 41.4075V46.6131C52.9973 46.7067 52.974 46.7987 52.9296 46.8809C52.8852 46.9631 52.821 47.0328 52.743 47.0837C52.665 47.1346 52.5755 47.1651 52.4828 47.1723C52.3901 47.1796 52.2971 47.1634 52.2122 47.1252L51.9116 46.9917L31.4129 37.8064C31.3139 37.7625 31.2297 37.6906 31.1706 37.5994C31.1115 37.5083 31.0801 37.4018 31.0801 37.2929C31.0801 37.1841 31.1115 37.0776 31.1706 36.9864C31.2297 36.8953 31.3139 36.8234 31.4129 36.7795L36.3812 34.5512L37.3478 34.1345C37.4183 34.1021 37.495 34.0853 37.5725 34.0853C37.65 34.0853 37.7267 34.1021 37.7972 34.1345L52.6697 40.8791C52.7703 40.9245 52.8552 40.999 52.9136 41.0931C52.9719 41.1872 53.0011 41.2967 52.9973 41.4075V41.4075Z" fill="#858D94"/>
<path d="M23.6476 48.5608V40.6612C23.6473 40.5521 23.6787 40.4453 23.7379 40.3538C23.797 40.2624 23.8814 40.1903 23.9806 40.1463L29.0193 37.9099C29.1043 37.8723 29.1973 37.8566 29.2899 37.8643C29.3824 37.8719 29.4716 37.9027 29.5493 37.9539C29.6271 38.005 29.6909 38.0749 29.735 38.1571C29.779 38.2393 29.802 38.3313 29.8018 38.4248V40.604L29.7883 48.5635C29.7883 48.7123 29.7295 48.8551 29.6249 48.9603C29.5203 49.0655 29.3785 49.1247 29.2305 49.1247H24.2053C24.1319 49.1247 24.0591 49.11 23.9913 49.0817C23.9234 49.0533 23.8618 49.0117 23.81 48.9593C23.7582 48.9069 23.7171 48.8448 23.6893 48.7764C23.6614 48.708 23.6472 48.6347 23.6476 48.5608V48.5608Z" fill="#5F6469"/>
</g>
<path d="M53.7812 18.6078C54.4727 18.6078 55.041 18.7075 55.4863 18.9067C55.9434 19.1059 56.3418 19.3168 56.6816 19.5395V21.1743C56.3535 20.9282 55.9551 20.6996 55.4863 20.4887C55.0176 20.2661 54.5078 20.1547 53.957 20.1547C53.6055 20.1547 53.2363 20.2192 52.8496 20.3481C52.4746 20.4653 52.1582 20.6586 51.9004 20.9282C51.6426 21.1977 51.5137 21.5434 51.5137 21.9653C51.5137 22.434 51.6836 22.7914 52.0234 23.0375C52.3633 23.2836 52.7734 23.518 53.2539 23.7407L54.8711 24.4789C55.6797 24.8422 56.2891 25.2465 56.6992 25.6918C57.1094 26.1371 57.3145 26.7289 57.3145 27.4672C57.3145 28.1118 57.127 28.6801 56.752 29.1723C56.377 29.6528 55.8848 30.0336 55.2754 30.3149C54.666 30.5961 53.998 30.7368 53.2715 30.7368C52.5918 30.7368 51.9648 30.6196 51.3906 30.3852C50.8164 30.1508 50.3184 29.8871 49.8965 29.5942V27.9594C50.3535 28.2758 50.875 28.5629 51.4609 28.8207C52.0586 29.0668 52.7324 29.1899 53.4824 29.1899C54.0684 29.1899 54.584 29.0434 55.0293 28.7504C55.4746 28.4575 55.6973 28.0532 55.6973 27.5375C55.6973 27.2446 55.6035 26.9926 55.416 26.7817C55.2402 26.5707 55.0234 26.3891 54.7656 26.2368C54.5078 26.0844 54.2559 25.9555 54.0098 25.85L52.0586 24.9711C51.2148 24.5961 50.6406 24.1567 50.3359 23.6528C50.0312 23.1489 49.8789 22.5688 49.8789 21.9125C49.8789 21.2914 50.0547 20.7348 50.4062 20.2426C50.7695 19.7387 51.25 19.3403 51.8477 19.0473C52.4453 18.7543 53.0898 18.6078 53.7812 18.6078ZM61.1289 21.7719V23.1606C61.3164 22.9262 61.5566 22.6918 61.8496 22.4575C62.1426 22.2114 62.4707 22.0063 62.834 21.8422C63.209 21.6782 63.5957 21.5961 63.9941 21.5961C64.5918 21.5961 65.1367 21.7309 65.6289 22.0004C66.1211 22.2582 66.5137 22.6567 66.8066 23.1957C67.0996 23.7231 67.2461 24.3911 67.2461 25.1996V30.561H65.8047L65.7871 25.3403C65.7871 24.5786 65.6172 23.9985 65.2773 23.6C64.9492 23.2016 64.4395 23.0024 63.748 23.0024C63.2793 23.0024 62.8105 23.1782 62.3418 23.5297C61.8848 23.8696 61.4805 24.268 61.1289 24.725V30.561H59.6875V21.7719H61.1289ZM73.9434 21.5961C74.834 21.5961 75.625 21.8071 76.3164 22.2289C77.0078 22.6508 77.5469 23.2133 77.9336 23.9164C78.332 24.6196 78.5312 25.3871 78.5312 26.2192C78.5312 27.0512 78.332 27.8188 77.9336 28.5219C77.5469 29.2133 77.0078 29.77 76.3164 30.1918C75.625 30.6137 74.834 30.8246 73.9434 30.8246C73.0527 30.8246 72.2617 30.6137 71.5703 30.1918C70.8789 29.77 70.334 29.2133 69.9355 28.5219C69.5488 27.8188 69.3555 27.0512 69.3555 26.2192C69.3555 25.3871 69.5488 24.6196 69.9355 23.9164C70.334 23.2133 70.8789 22.6508 71.5703 22.2289C72.2617 21.8071 73.0527 21.5961 73.9434 21.5961ZM73.9434 23.0024C73.3223 23.0024 72.7773 23.1547 72.3086 23.4594C71.8398 23.7524 71.4766 24.145 71.2188 24.6371C70.9727 25.1176 70.8496 25.645 70.8496 26.2192C70.8496 26.7817 70.9727 27.309 71.2188 27.8012C71.4766 28.2817 71.8398 28.6743 72.3086 28.9789C72.7773 29.2719 73.3223 29.4184 73.9434 29.4184C74.5762 29.4184 75.1211 29.2719 75.5781 28.9789C76.0469 28.6743 76.4043 28.2817 76.6504 27.8012C76.9082 27.309 77.0371 26.7817 77.0371 26.2192C77.0371 25.645 76.9082 25.1176 76.6504 24.6371C76.4043 24.145 76.0469 23.7524 75.5781 23.4594C75.1211 23.1547 74.5762 23.0024 73.9434 23.0024ZM84.877 21.5961C85.7676 21.5961 86.5586 21.8071 87.25 22.2289C87.9414 22.6508 88.4805 23.2133 88.8672 23.9164C89.2656 24.6196 89.4648 25.3871 89.4648 26.2192C89.4648 27.0512 89.2656 27.8188 88.8672 28.5219C88.4805 29.2133 87.9414 29.77 87.25 30.1918C86.5586 30.6137 85.7676 30.8246 84.877 30.8246C83.9863 30.8246 83.1953 30.6137 82.5039 30.1918C81.8125 29.77 81.2676 29.2133 80.8691 28.5219C80.4824 27.8188 80.2891 27.0512 80.2891 26.2192C80.2891 25.3871 80.4824 24.6196 80.8691 23.9164C81.2676 23.2133 81.8125 22.6508 82.5039 22.2289C83.1953 21.8071 83.9863 21.5961 84.877 21.5961ZM84.877 23.0024C84.2559 23.0024 83.7109 23.1547 83.2422 23.4594C82.7734 23.7524 82.4102 24.145 82.1523 24.6371C81.9062 25.1176 81.7832 25.645 81.7832 26.2192C81.7832 26.7817 81.9062 27.309 82.1523 27.8012C82.4102 28.2817 82.7734 28.6743 83.2422 28.9789C83.7109 29.2719 84.2559 29.4184 84.877 29.4184C85.5098 29.4184 86.0547 29.2719 86.5117 28.9789C86.9805 28.6743 87.3379 28.2817 87.584 27.8012C87.8418 27.309 87.9707 26.7817 87.9707 26.2192C87.9707 25.645 87.8418 25.1176 87.584 24.6371C87.3379 24.145 86.9805 23.7524 86.5117 23.4594C86.0547 23.1547 85.5098 23.0024 84.877 23.0024ZM96.3027 21.5961C97.0645 21.5961 97.75 21.7836 98.3594 22.1586C98.9805 22.5219 99.4727 23.0375 99.8359 23.7055C100.211 24.3618 100.398 25.1352 100.398 26.0258C100.398 26.9868 100.211 27.8305 99.8359 28.5571C99.4727 29.2719 98.9688 29.8286 98.3242 30.227C97.6914 30.6254 96.9707 30.8246 96.1621 30.8246C95.6582 30.8246 95.1426 30.6899 94.6152 30.4203C94.0996 30.1508 93.6543 29.8051 93.2793 29.3832V34.7797H91.8379V21.7719H93.2793V23.2661C93.584 22.7973 93.9941 22.4047 94.5098 22.0883C95.0371 21.7602 95.6348 21.5961 96.3027 21.5961ZM96.0742 23.0024C95.5469 23.0024 95.0664 23.1371 94.6328 23.4067C94.2109 23.6762 93.877 24.0512 93.6309 24.5317C93.3965 25.0004 93.2793 25.5512 93.2793 26.184L93.2969 27.8715C93.6719 28.3286 94.0645 28.7036 94.4746 28.9965C94.8848 29.2778 95.3594 29.4184 95.8984 29.4184C96.5312 29.4184 97.0703 29.2543 97.5156 28.9262C97.9609 28.5981 98.3008 28.1762 98.5352 27.6606C98.7812 27.1332 98.9043 26.5883 98.9043 26.0258C98.9043 25.4516 98.7871 24.9418 98.5527 24.4965C98.3184 24.0395 97.9902 23.6762 97.5684 23.4067C97.1465 23.1371 96.6484 23.0024 96.0742 23.0024ZM106.059 18.6078C106.75 18.6078 107.318 18.7075 107.764 18.9067C108.221 19.1059 108.619 19.3168 108.959 19.5395V21.1743C108.631 20.9282 108.232 20.6996 107.764 20.4887C107.295 20.2661 106.785 20.1547 106.234 20.1547C105.883 20.1547 105.514 20.2192 105.127 20.3481C104.752 20.4653 104.436 20.6586 104.178 20.9282C103.92 21.1977 103.791 21.5434 103.791 21.9653C103.791 22.434 103.961 22.7914 104.301 23.0375C104.641 23.2836 105.051 23.518 105.531 23.7407L107.148 24.4789C107.957 24.8422 108.566 25.2465 108.977 25.6918C109.387 26.1371 109.592 26.7289 109.592 27.4672C109.592 28.1118 109.404 28.6801 109.029 29.1723C108.654 29.6528 108.162 30.0336 107.553 30.3149C106.943 30.5961 106.275 30.7368 105.549 30.7368C104.869 30.7368 104.242 30.6196 103.668 30.3852C103.094 30.1508 102.596 29.8871 102.174 29.5942V27.9594C102.631 28.2758 103.152 28.5629 103.738 28.8207C104.336 29.0668 105.01 29.1899 105.76 29.1899C106.346 29.1899 106.861 29.0434 107.307 28.7504C107.752 28.4575 107.975 28.0532 107.975 27.5375C107.975 27.2446 107.881 26.9926 107.693 26.7817C107.518 26.5707 107.301 26.3891 107.043 26.2368C106.785 26.0844 106.533 25.9555 106.287 25.85L104.336 24.9711C103.492 24.5961 102.918 24.1567 102.613 23.6528C102.309 23.1489 102.156 22.5688 102.156 21.9125C102.156 21.2914 102.332 20.7348 102.684 20.2426C103.047 19.7387 103.527 19.3403 104.125 19.0473C104.723 18.7543 105.367 18.6078 106.059 18.6078ZM114.391 19.2407V21.7719H116.957V23.1254H114.391V28.2758C114.391 28.6391 114.484 28.9262 114.672 29.1371C114.859 29.3481 115.146 29.4536 115.533 29.4536C115.885 29.4536 116.178 29.4125 116.412 29.3305C116.646 29.2368 116.852 29.1371 117.027 29.0317V30.2094C116.793 30.3969 116.541 30.5434 116.271 30.6489C116.014 30.7661 115.662 30.8246 115.217 30.8246C114.467 30.8246 113.898 30.602 113.512 30.1567C113.137 29.6996 112.949 29.0961 112.949 28.3461V23.1254H111.262V22.7036C111.836 22.4457 112.316 22.0239 112.703 21.4379C113.09 20.8403 113.43 20.1078 113.723 19.2407H114.391ZM126.766 21.7719V26.975C126.766 27.7485 126.602 28.4164 126.273 28.9789C125.945 29.5414 125.5 29.975 124.938 30.2797C124.375 30.5844 123.742 30.7368 123.039 30.7368C122.336 30.7368 121.703 30.5844 121.141 30.2797C120.578 29.975 120.133 29.5414 119.805 28.9789C119.477 28.4164 119.312 27.7485 119.312 26.975V21.7719H120.807V26.975C120.807 27.7368 121.029 28.3227 121.475 28.7328C121.932 29.1313 122.453 29.3305 123.039 29.3305C123.625 29.3305 124.141 29.1313 124.586 28.7328C125.043 28.3227 125.271 27.7368 125.271 26.975V21.7719H126.766ZM137.436 17.9047V30.561H135.994V29.0668C135.689 29.5356 135.273 29.9457 134.746 30.2973C134.23 30.6489 133.639 30.8246 132.971 30.8246C132.221 30.8246 131.535 30.6371 130.914 30.2621C130.293 29.8754 129.795 29.3422 129.42 28.6625C129.057 27.9828 128.875 27.1977 128.875 26.3071C128.875 25.3344 129.057 24.4965 129.42 23.7934C129.795 23.0903 130.305 22.5512 130.949 22.1762C131.594 21.7895 132.314 21.5961 133.111 21.5961C133.615 21.5961 134.125 21.7192 134.641 21.9653C135.168 22.1996 135.619 22.5278 135.994 22.9496V17.9047H137.436ZM133.375 23.0375C132.742 23.0375 132.203 23.1957 131.758 23.5121C131.312 23.8168 130.967 24.2153 130.721 24.7075C130.486 25.1996 130.369 25.7328 130.369 26.3071C130.369 26.8696 130.486 27.3911 130.721 27.8715C130.955 28.3403 131.283 28.7153 131.705 28.9965C132.139 29.2778 132.637 29.4184 133.199 29.4184C133.738 29.4184 134.219 29.2778 134.641 28.9965C135.062 28.7153 135.396 28.3286 135.643 27.8364C135.889 27.3325 136.006 26.77 135.994 26.1489L135.977 24.4614C135.613 24.0043 135.221 23.6528 134.799 23.4067C134.389 23.1606 133.914 23.0375 133.375 23.0375ZM141.83 17.5532C142.17 17.5532 142.451 17.6762 142.674 17.9223C142.908 18.1567 143.025 18.4321 143.025 18.7485C143.025 19.0532 142.908 19.3286 142.674 19.5746C142.451 19.8207 142.17 19.9438 141.83 19.9438C141.49 19.9438 141.203 19.8207 140.969 19.5746C140.746 19.3286 140.635 19.0532 140.635 18.7485C140.635 18.4321 140.746 18.1567 140.969 17.9223C141.203 17.6762 141.49 17.5532 141.83 17.5532ZM142.727 21.7719V30.561H141.285V23.1254H139.896V21.7719H142.727ZM149.811 21.5961C150.701 21.5961 151.492 21.8071 152.184 22.2289C152.875 22.6508 153.414 23.2133 153.801 23.9164C154.199 24.6196 154.398 25.3871 154.398 26.2192C154.398 27.0512 154.199 27.8188 153.801 28.5219C153.414 29.2133 152.875 29.77 152.184 30.1918C151.492 30.6137 150.701 30.8246 149.811 30.8246C148.92 30.8246 148.129 30.6137 147.438 30.1918C146.746 29.77 146.201 29.2133 145.803 28.5219C145.416 27.8188 145.223 27.0512 145.223 26.2192C145.223 25.3871 145.416 24.6196 145.803 23.9164C146.201 23.2133 146.746 22.6508 147.438 22.2289C148.129 21.8071 148.92 21.5961 149.811 21.5961ZM149.811 23.0024C149.189 23.0024 148.645 23.1547 148.176 23.4594C147.707 23.7524 147.344 24.145 147.086 24.6371C146.84 25.1176 146.717 25.645 146.717 26.2192C146.717 26.7817 146.84 27.309 147.086 27.8012C147.344 28.2817 147.707 28.6743 148.176 28.9789C148.645 29.2719 149.189 29.4184 149.811 29.4184C150.443 29.4184 150.988 29.2719 151.445 28.9789C151.914 28.6743 152.271 28.2817 152.518 27.8012C152.775 27.309 152.904 26.7817 152.904 26.2192C152.904 25.645 152.775 25.1176 152.518 24.6371C152.271 24.145 151.914 23.7524 151.445 23.4594C150.988 23.1547 150.443 23.0024 149.811 23.0024Z" fill="#858D94"/>
<defs>
<clipPath id="clip0_404_1418">
<rect width="53" height="49.122" fill="white"/>
</clipPath>
</defs>
</svg>
