<svg width="320" height="53" viewBox="0 0 320 53" fill="none" xmlns="http://www.w3.org/2000/svg">
<path d="M24.1923 45C16.3304 45 10.3328 43.0573 6.1997 39.1717C2.06655 35.286 0 29.7967 0 22.7033C0 15.384 2.02164 9.78164 6.06492 5.89609C10.1082 1.96537 16.1282 0 24.1249 0C26.8205 0 29.224 0.203313 31.3355 0.609943C33.4468 1.01657 35.4685 1.58134 37.4005 2.30422V13.4187C33.5368 11.7018 29.4037 10.8434 25.001 10.8434C20.9128 10.8434 17.8803 11.7922 15.9036 13.6898C13.9269 15.5422 12.9385 18.5467 12.9385 22.7033C12.9385 26.7696 13.9718 29.7063 16.0384 31.5136C18.1499 33.2756 21.1823 34.1566 25.1358 34.1566C27.2922 34.1566 29.3812 33.9533 31.4028 33.5467C33.4694 33.1401 35.5136 32.5074 37.5353 31.6491V42.8313C35.6032 43.509 33.5594 44.0285 31.4028 44.3901C29.2913 44.7967 26.8878 45 24.1923 45ZM46.9979 44.3223V0.677714H66.4057C70.8533 0.677714 74.6496 1.4232 77.7943 2.91416C80.9389 4.35995 83.3427 6.70934 85.0048 9.96235C86.6669 13.1702 87.4981 17.4398 87.4981 22.7711C87.4981 30.2711 85.6787 35.7381 82.0397 39.1717C78.4007 42.6053 73.1893 44.3223 66.4057 44.3223H46.9979ZM59.6669 34.5633H64.7884C66.9 34.5633 68.6743 34.2695 70.112 33.6822C71.5497 33.0496 72.6502 31.8975 73.414 30.2259C74.1779 28.509 74.5596 26.0241 74.5596 22.7711C74.5596 19.5181 74.2001 17.0105 73.4814 15.2485C72.8075 13.4413 71.7519 12.1988 70.3142 11.5211C68.8765 10.7982 67.0347 10.4367 64.7884 10.4367H59.6669V34.5633ZM96.9257 44.3223V0.677714H119.501C123.05 0.677714 125.947 1.33282 128.194 2.64308C130.485 3.95333 132.192 5.78315 133.315 8.13253C134.438 10.4368 135 13.125 135 16.1973C135 19.134 134.259 21.7319 132.776 23.991C131.338 26.2048 129.407 27.8991 126.981 29.0738C127.475 29.4804 127.902 29.9774 128.261 30.5648C128.62 31.1069 129.025 31.8751 129.474 32.869L134.461 44.3223H121.253L116.67 33.8178C116.311 33.0045 115.862 32.4396 115.323 32.1235C114.828 31.7619 114.11 31.5813 113.166 31.5813H109.595V44.3223H96.9257ZM109.595 21.8223H116.266C118.108 21.8223 119.523 21.3479 120.512 20.3991C121.545 19.4051 122.061 18.0045 122.061 16.1973C122.061 12.3569 120.264 10.4367 116.67 10.4367H109.595V21.8223Z" fill="#E0E0E0"/>
<path d="M146.721 44.939C145.561 44.8046 144.645 44.4016 143.971 43.7299C143.324 43.0581 143 42.2117 143 41.1906C143 40.4114 143.189 39.6053 143.566 38.7723L152.828 17.7734C153.34 16.5911 154.23 16 155.497 16C156.737 16 157.614 16.5911 158.126 17.7734L167.388 38.7723C167.765 39.659 167.954 40.4651 167.954 41.1906C167.954 42.2117 167.617 43.0581 166.943 43.7299C166.296 44.4016 165.379 44.8046 164.193 44.939L160.795 37.281H150.159L146.721 44.939ZM159.137 32.6863L154.688 21.6427L154.203 21.8442L155.174 24.3431L151.776 32.6863H159.137ZM174.723 27.9303C174.723 26.6943 175.114 25.7404 175.895 25.0686C176.704 24.3969 177.918 24.061 179.535 24.061V26.4793C179.212 26.8555 178.888 27.2854 178.565 27.7691L178.807 27.9303C179.616 26.7211 180.654 25.7807 181.922 25.1089C183.189 24.4103 184.591 24.061 186.128 24.061C187.503 24.061 188.716 24.37 189.768 24.988C190.819 25.606 191.628 26.4524 192.194 27.5272C192.788 28.602 193.084 29.8112 193.084 31.1547V41.8758C193.084 42.9506 192.666 43.7298 191.83 44.2135C190.995 44.6972 189.727 44.939 188.029 44.939V31.8802C188.029 30.8591 187.719 30.0261 187.098 29.3813C186.505 28.7364 185.629 28.4139 184.47 28.4139C183.094 28.4139 181.962 28.8439 181.072 29.7037C180.182 30.5367 179.738 31.5846 179.738 32.8475V41.8758C179.738 42.9506 179.333 43.7298 178.524 44.2135C177.715 44.6972 176.448 44.939 174.723 44.939V27.9303ZM207.136 44.939C205.761 44.939 204.493 44.6703 203.334 44.1329C202.202 43.5955 201.285 42.8297 200.584 41.8355C199.91 40.8145 199.573 39.6053 199.573 38.2081C199.573 36.8108 199.937 35.6017 200.665 34.5806C201.393 33.5327 202.377 32.74 203.617 32.2026C204.884 31.6383 206.273 31.3562 207.783 31.3562C209.023 31.3562 210.129 31.5577 211.099 31.9608C212.097 32.337 213.014 32.9147 213.849 33.6939L214.052 33.4924C213.809 33.2505 213.391 32.8878 212.798 32.4041V31.598C212.798 30.4964 212.407 29.6231 211.625 28.9782C210.843 28.3333 209.751 28.0109 208.349 28.0109C205.842 28.0109 203.995 28.9245 202.808 30.7516C202.215 30.5635 201.716 30.268 201.312 29.8649C200.907 29.435 200.705 28.9782 200.705 28.4946C200.705 27.6885 201.069 26.9495 201.797 26.2778C202.525 25.606 203.509 25.0686 204.75 24.6656C205.99 24.2625 207.338 24.061 208.794 24.061C211.652 24.061 213.863 24.7328 215.427 26.0763C216.991 27.3929 217.772 29.1932 217.772 31.4771V41.5534C217.772 42.7357 217.395 43.5955 216.64 44.1329C215.885 44.6703 214.699 44.939 213.081 44.939V43.2865C213.539 42.8297 213.849 42.4938 214.011 42.2789L213.849 42.0773C212.96 43.0178 212.002 43.7298 210.978 44.2135C209.98 44.6972 208.7 44.939 207.136 44.939ZM208.43 41.2712C209.832 41.2712 210.924 41.0025 211.706 40.4651C212.488 39.9277 212.879 39.1619 212.879 38.1678C212.879 37.2004 212.474 36.4346 211.665 35.8704C210.884 35.3061 209.818 35.024 208.47 35.024C207.23 35.024 206.246 35.3061 205.518 35.8704C204.817 36.4078 204.466 37.1736 204.466 38.1678C204.466 39.1888 204.817 39.968 205.518 40.5054C206.219 41.016 207.19 41.2712 208.43 41.2712ZM231.766 44.939C229.529 44.939 227.83 44.3076 226.67 43.0447C225.538 41.7549 224.972 40.1293 224.972 38.1678V19.0632C224.972 17.9615 225.376 17.1823 226.185 16.7255C227.021 16.2418 228.302 16 230.027 16V37.9662C230.027 38.8798 230.23 39.5516 230.634 39.9815C231.038 40.3845 231.686 40.5861 232.575 40.5861C233.573 40.5861 234.571 40.3308 235.568 39.8203C235.838 40.0621 236.04 40.3711 236.175 40.7473C236.337 41.0966 236.417 41.4593 236.417 41.8355C236.417 42.6416 236.013 43.3671 235.204 44.012C234.395 44.63 233.249 44.939 231.766 44.939ZM243.563 53C242.511 53 241.675 52.6373 241.055 51.9118C240.462 51.1863 240.165 50.1383 240.165 48.768C240.974 48.9023 241.648 48.9695 242.187 48.9695C243.212 48.9695 244.021 48.7008 244.614 48.1634C245.234 47.626 245.908 46.5512 246.636 44.939L247.283 43.4477L239.478 24.4641C239.666 24.3566 239.99 24.2625 240.448 24.1819C240.934 24.1013 241.325 24.061 241.621 24.061C242.403 24.061 243.118 24.2357 243.765 24.585C244.412 24.9074 244.857 25.3642 245.099 25.9553L249.427 37.281L248.739 39.1754L249.103 39.2963L254.321 25.9553C254.563 25.3373 254.995 24.8671 255.615 24.5447C256.262 24.2222 256.977 24.061 257.758 24.061C258.055 24.061 258.432 24.1013 258.891 24.1819C259.376 24.2625 259.727 24.3566 259.942 24.4641L250.883 46.39C249.939 48.6471 248.901 50.313 247.769 51.3878C246.663 52.4626 245.261 53 243.563 53ZM273.052 44.939C270.463 44.939 268.374 44.4822 266.783 43.5686C265.219 42.6282 264.424 41.3787 264.397 39.8203C264.397 39.1485 264.666 38.5842 265.205 38.1275C265.772 37.6707 266.661 37.4288 267.875 37.402C268.117 38.5842 268.684 39.4978 269.573 40.1427C270.463 40.7607 271.542 41.0697 272.809 41.0697C274.184 41.0697 275.263 40.8951 276.044 40.5458C276.826 40.1964 277.217 39.6725 277.217 38.9739C277.217 38.329 276.894 37.7916 276.247 37.3617C275.627 36.9317 274.386 36.5018 272.526 36.0719C270.504 35.5882 268.926 35.1046 267.794 34.6209C266.688 34.1373 265.866 33.5192 265.327 32.7669C264.788 32.0145 264.518 31.0203 264.518 29.7843C264.518 28.0646 265.246 26.6808 266.702 25.6329C268.158 24.585 270.153 24.061 272.688 24.061C275.141 24.061 277.177 24.5044 278.795 25.3911C280.412 26.2509 281.221 27.4063 281.221 28.8573C281.221 29.5828 280.952 30.1202 280.412 30.4695C279.873 30.8188 278.983 31.0069 277.743 31.0338C277.473 29.959 276.961 29.1529 276.206 28.6155C275.451 28.0781 274.386 27.8094 273.011 27.8094C271.987 27.8094 271.097 27.984 270.342 28.3333C269.614 28.6826 269.25 29.1394 269.25 29.7037C269.25 30.2948 269.56 30.7516 270.18 31.0741C270.8 31.3965 271.879 31.719 273.416 32.0414C276.435 32.6863 278.619 33.5461 279.968 34.6209C281.343 35.6957 282.03 37.1601 282.03 39.0142C282.03 40.8145 281.221 42.252 279.604 43.3268C278.013 44.4016 275.829 44.939 273.052 44.939ZM291.844 22.1667C290.873 22.1667 290.064 21.8845 289.417 21.3203C288.797 20.7291 288.487 19.9768 288.487 19.0632C288.487 18.1765 288.797 17.451 289.417 16.8867C290.064 16.2956 290.873 16 291.844 16C292.815 16 293.61 16.2956 294.23 16.8867C294.877 17.451 295.201 18.1765 295.201 19.0632C295.201 19.9768 294.877 20.7291 294.23 21.3203C293.61 21.8845 292.815 22.1667 291.844 22.1667ZM289.296 27.1242C289.296 26.0225 289.714 25.2433 290.55 24.7865C291.386 24.3028 292.653 24.061 294.351 24.061V41.8758C294.351 42.9506 293.934 43.7298 293.098 44.2135C292.262 44.6972 290.995 44.939 289.296 44.939V27.1242ZM311.021 44.939C308.433 44.939 306.343 44.4822 304.753 43.5686C303.189 42.6282 302.393 41.3787 302.366 39.8203C302.366 39.1485 302.636 38.5842 303.175 38.1275C303.742 37.6707 304.631 37.4288 305.845 37.402C306.087 38.5842 306.653 39.4978 307.543 40.1427C308.433 40.7607 309.512 41.0697 310.779 41.0697C312.154 41.0697 313.232 40.8951 314.014 40.5458C314.796 40.1964 315.187 39.6725 315.187 38.9739C315.187 38.329 314.864 37.7916 314.217 37.3617C313.596 36.9317 312.356 36.5018 310.496 36.0719C308.473 35.5882 306.896 35.1046 305.764 34.6209C304.658 34.1373 303.836 33.5192 303.297 32.7669C302.757 32.0145 302.488 31.0203 302.488 29.7843C302.488 28.0646 303.216 26.6808 304.672 25.6329C306.128 24.585 308.123 24.061 310.657 24.061C313.111 24.061 315.147 24.5044 316.764 25.3911C318.382 26.2509 319.191 27.4063 319.191 28.8573C319.191 29.5828 318.921 30.1202 318.382 30.4695C317.843 30.8188 316.953 31.0069 315.713 31.0338C315.443 29.959 314.931 29.1529 314.176 28.6155C313.421 28.0781 312.356 27.8094 310.981 27.8094C309.956 27.8094 309.067 27.984 308.312 28.3333C307.584 28.6826 307.22 29.1394 307.22 29.7037C307.22 30.2948 307.53 30.7516 308.15 31.0741C308.77 31.3965 309.849 31.719 311.385 32.0414C314.405 32.6863 316.589 33.5461 317.937 34.6209C319.312 35.6957 320 37.1601 320 39.0142C320 40.8145 319.191 42.252 317.573 43.3268C315.983 44.4016 313.799 44.939 311.021 44.939Z" fill="#E0E0E0"/>
</svg>
