<svg width="150" height="43" viewBox="0 0 150 43" fill="none" xmlns="http://www.w3.org/2000/svg">
<path d="M0 43V0H10.5632V43H0ZM21.8282 43V0H42.6267C45.9946 0 48.7723 0.689961 50.9592 2.06988C53.1461 3.40528 54.7646 5.23032 55.8144 7.54503C56.908 9.85975 57.4546 12.4638 57.4546 15.3571C57.4546 18.295 56.8424 20.8991 55.6175 23.1693C54.3927 25.4394 52.6433 27.22 50.3687 28.5109C48.138 29.7573 45.4697 30.3804 42.3643 30.3804H32.3915V43H21.8282ZM32.3915 22.1009H40.0023C42.233 22.1009 43.895 21.4778 44.9887 20.2314C46.1258 18.985 46.6945 17.338 46.6945 15.2904C46.6945 13.0647 46.1697 11.3509 45.1199 10.1491C44.114 8.90268 42.5172 8.27951 40.3303 8.27951H32.3915V22.1009ZM66.2099 43V0H84.5152C88.802 0 92.4106 0.734472 95.3409 2.20342C98.2716 3.62784 100.502 5.94255 102.033 9.14752C103.564 12.308 104.329 16.5145 104.329 21.7671C104.329 29.1563 102.646 34.5424 99.2775 37.9255C95.9535 41.3086 91.0328 43 84.5152 43H66.2099ZM76.7732 34.7205H83.0718C85.3464 34.7205 87.2491 34.3866 88.7799 33.7189C90.3545 33.0067 91.5355 31.7158 92.3228 29.8463C93.154 27.9767 93.5694 25.2837 93.5694 21.7671C93.5694 18.206 93.1979 15.4684 92.454 13.5544C91.7545 11.5958 90.6169 10.2381 89.0423 9.48137C87.5115 8.68013 85.5215 8.27951 83.0718 8.27951H76.7732V34.7205ZM114.308 43V0H135.435C140.421 0 144.095 1.33541 146.457 4.00621C148.819 6.67702 150 10.2604 150 14.7562C150 17.6496 149.278 20.1868 147.835 22.368C146.391 24.5492 144.423 26.1739 141.93 27.2422C142.542 27.7319 143.024 28.2883 143.373 28.9115C143.767 29.4902 144.182 30.3137 144.62 31.382L149.606 43H138.584L133.86 32.0497C133.466 31.1149 132.963 30.4472 132.351 30.0466C131.739 29.6014 130.864 29.3789 129.726 29.3789H124.871V43H114.308ZM124.871 21.0994H132.679C134.735 21.0994 136.331 20.5875 137.468 19.5637C138.649 18.4953 139.24 16.8929 139.24 14.7562C139.24 10.4384 137.206 8.27951 133.138 8.27951H124.871V21.0994Z" fill="#E0E0E0"/>
</svg>
