<svg width="122" height="43" viewBox="0 0 122 43" fill="none" xmlns="http://www.w3.org/2000/svg">
<path d="M0 42.3524V0.64759H10.5535V34.3223H30.4805V42.3524H0ZM37.8445 42.3524L53.9696 0.64759H65.3752L81.5003 42.3524H70.488L66.6862 32.8976H52.593L48.8567 42.3524H37.8445ZM54.0351 25.1913H65.2441L59.6068 10.6852L54.0351 25.1913ZM109.218 43C101.833 43 96.1957 41.1434 92.3061 37.4307C88.4608 33.6747 86.5378 28.4724 86.5378 21.8238C86.5378 14.873 88.417 9.49801 92.175 5.6988C95.9769 1.89959 101.636 0 109.152 0C111.731 0 114.025 0.194277 116.035 0.582831C118.089 0.971385 120.056 1.48946 121.934 2.13705V11.2681C118.133 9.71386 114.134 8.93675 109.939 8.93675C105.569 8.93675 102.357 9.9729 100.303 12.0452C98.2933 14.1175 97.2879 17.377 97.2879 21.8238C97.2879 26.0547 98.3588 29.1631 100.5 31.1491C102.641 33.1351 105.831 34.128 110.07 34.128C112.124 34.128 114.156 33.9553 116.166 33.6099C118.176 33.2214 120.121 32.6386 122 31.8614V41.0572C120.165 41.6615 118.22 42.1367 116.166 42.4819C114.112 42.8272 111.796 43 109.218 43Z" fill="#E0E0E0"/>
</svg>
